<svg xmlns="http://www.w3.org/2000/svg" xmlns:xlink="http://www.w3.org/1999/xlink" width="100" zoomAndPan="magnify" viewBox="0 0 75 74.999997" height="100" preserveAspectRatio="xMidYMid meet" version="1.0"><defs><g/><clipPath id="4e275e438c"><path d="M 11.914062 34 L 35 34 L 35 64.5 L 11.914062 64.5 Z M 11.914062 34 " clip-rule="nonzero"/></clipPath><clipPath id="0cd7714beb"><path d="M 40 34 L 62.914062 34 L 62.914062 64.5 L 40 64.5 Z M 40 34 " clip-rule="nonzero"/></clipPath><clipPath id="29cb191e86"><path d="M 36 3 L 47 3 L 47 16 L 36 16 Z M 36 3 " clip-rule="nonzero"/></clipPath><clipPath id="375e7749b8"><rect x="0" width="69" y="0" height="12"/></clipPath></defs><g clip-path="url(#4e275e438c)"><path fill="#f68712" d="M 34.324219 64.5625 L 29.96875 52.710938 C 29.746094 52.183594 29.363281 51.746094 28.878906 51.476562 C 25.960938 49.835938 23.03125 48.207031 20.125 46.546875 C 19.351562 46.105469 18.355469 45.863281 17.804688 46.804688 C 17.539062 47.257812 17.550781 47.84375 17.800781 48.300781 C 18.132812 48.902344 18.820312 49.378906 19.3125 49.839844 C 19.847656 50.347656 20.382812 50.855469 20.917969 51.363281 C 21.597656 52.007812 22.253906 52.710938 22.972656 53.308594 C 22.972656 53.308594 17.808594 48.984375 17.808594 48.984375 C 17.601562 48.792969 17.429688 48.558594 17.320312 48.289062 C 16.558594 46.441406 18.230469 45.757812 18.230469 45.757812 L 14.007812 35.375 C 13.800781 34.894531 13.320312 34.589844 12.824219 34.679688 C 12.605469 34.71875 12.386719 34.832031 12.210938 35.078125 C 12.007812 35.367188 11.945312 35.742188 12.011719 36.09375 L 14.390625 49.035156 C 14.671875 50.558594 15.523438 51.894531 16.75 52.738281 L 25.082031 58.46875 C 25.503906 58.757812 25.785156 59.222656 25.863281 59.746094 L 26.574219 64.5625 C 26.574219 64.5625 28.324219 64.816406 34.324219 64.5625 " fill-opacity="1" fill-rule="nonzero"/></g><g clip-path="url(#0cd7714beb)"><path fill="#f68712" d="M 40.671875 64.5625 L 45.027344 52.710938 C 45.25 52.183594 45.632812 51.746094 46.117188 51.476562 C 49.035156 49.835938 51.964844 48.207031 54.871094 46.546875 C 55.644531 46.105469 56.640625 45.863281 57.191406 46.804688 C 57.457031 47.257812 57.441406 47.84375 57.195312 48.300781 C 56.863281 48.902344 56.175781 49.378906 55.683594 49.839844 C 55.148438 50.347656 54.613281 50.855469 54.078125 51.363281 C 53.398438 52.007812 52.742188 52.710938 52.023438 53.308594 C 52.023438 53.308594 57.1875 48.984375 57.1875 48.984375 C 57.394531 48.792969 57.566406 48.558594 57.675781 48.289062 C 58.4375 46.441406 56.765625 45.757812 56.765625 45.757812 L 60.988281 35.375 C 61.195312 34.894531 61.675781 34.589844 62.167969 34.679688 C 62.390625 34.71875 62.609375 34.832031 62.785156 35.078125 C 62.988281 35.367188 63.050781 35.742188 62.984375 36.09375 L 60.605469 49.035156 C 60.324219 50.558594 59.472656 51.894531 58.246094 52.738281 L 49.914062 58.46875 C 49.492188 58.757812 49.207031 59.222656 49.132812 59.746094 L 48.421875 64.5625 C 48.421875 64.5625 46.671875 64.816406 40.671875 64.5625 " fill-opacity="1" fill-rule="nonzero"/></g><path fill="#ffffff" d="M 37.527344 15.046875 C 37.484375 15.140625 37.4375 15.234375 37.390625 15.332031 L 36.847656 15.476562 C 36.851562 15.496094 36.84375 15.460938 36.847656 15.476562 C 28.160156 15.121094 28.824219 4.433594 28.894531 3.957031 L 28.875 3.910156 C 28.875 3.910156 41.089844 6.792969 37.527344 15.046875 " fill-opacity="1" fill-rule="nonzero"/><path fill="#41b93c" d="M 37.527344 15.046875 C 37.484375 15.140625 37.4375 15.234375 37.390625 15.332031 C 36.53125 11.441406 34.019531 7.855469 30.628906 5.835938 C 32.097656 6.851562 33.371094 8.179688 34.355469 9.695312 C 35.570312 11.410156 36.429688 13.378906 36.835938 15.425781 C 36.839844 15.445312 36.84375 15.460938 36.847656 15.476562 C 28.160156 15.121094 28.824219 4.433594 28.894531 3.957031 L 28.875 3.910156 C 28.875 3.910156 41.089844 6.792969 37.527344 15.046875 " fill-opacity="1" fill-rule="nonzero"/><g clip-path="url(#29cb191e86)"><path fill="#ffffff" d="M 36.867188 15.203125 C 36.914062 15.304688 36.964844 15.410156 37.019531 15.515625 L 37.613281 15.664062 C 37.609375 15.683594 37.613281 15.644531 37.613281 15.664062 C 47.046875 15.171875 46.164062 3.5625 46.082031 3.042969 L 46.105469 2.992188 C 46.105469 2.992188 32.871094 6.273438 36.867188 15.203125 " fill-opacity="1" fill-rule="nonzero"/><path fill="#41b93c" d="M 36.867188 15.203125 C 36.914062 15.304688 36.964844 15.410156 37.019531 15.515625 C 37.894531 11.269531 40.570312 7.34375 44.222656 5.105469 C 42.644531 6.226562 41.28125 7.6875 40.230469 9.347656 C 38.941406 11.226562 38.03125 13.378906 37.621094 15.609375 C 37.617188 15.628906 37.613281 15.644531 37.613281 15.664062 C 47.046875 15.171875 46.164062 3.5625 46.082031 3.042969 L 46.105469 2.992188 C 46.105469 2.992188 32.871094 6.273438 36.867188 15.203125 " fill-opacity="1" fill-rule="nonzero"/></g><path fill="#41b93c" d="M 37.574219 51.109375 C 32.367188 51.109375 27.300781 48.742188 24.019531 44.777344 C 21.710938 41.988281 20.339844 38.566406 20.054688 34.875 C 19.933594 33.347656 20.007812 31.816406 20.273438 30.332031 L 20.273438 30.316406 C 20.320312 30.050781 20.378906 29.769531 20.441406 29.492188 C 20.722656 28.253906 21.144531 27.046875 21.6875 25.902344 C 21.914062 25.425781 22.171875 24.945312 22.445312 24.484375 C 22.996094 23.5625 23.636719 22.683594 24.351562 21.875 C 24.679688 21.503906 25.027344 21.140625 25.386719 20.796875 L 25.472656 20.71875 C 25.75 20.453125 26.039062 20.203125 26.324219 19.964844 C 29.488281 17.351562 33.480469 15.910156 37.5625 15.910156 C 38.667969 15.910156 39.777344 16.019531 40.855469 16.230469 C 43.609375 16.769531 46.238281 18.015625 48.453125 19.832031 C 48.558594 19.914062 48.664062 20.003906 48.765625 20.089844 C 48.988281 20.28125 49.210938 20.484375 49.425781 20.683594 C 49.898438 21.132812 50.351562 21.613281 50.777344 22.117188 C 50.847656 22.199219 50.917969 22.28125 50.984375 22.367188 C 51.945312 23.546875 52.753906 24.84375 53.386719 26.222656 C 54.023438 27.609375 54.480469 29.066406 54.738281 30.554688 L 54.742188 30.574219 C 54.785156 30.828125 54.824219 31.082031 54.855469 31.324219 C 54.949219 32.050781 54.996094 32.789062 54.996094 33.515625 C 54.996094 37.089844 53.902344 40.5625 51.835938 43.554688 C 49.757812 46.558594 46.890625 48.800781 43.542969 50.042969 C 41.636719 50.75 39.628906 51.109375 37.574219 51.109375 " fill-opacity="1" fill-rule="nonzero"/><path fill="#ffffff" d="M 31.15625 19.070312 C 31.023438 19.074219 30.832031 18.933594 30.789062 19.113281 C 30.816406 19.179688 30.964844 19.121094 30.972656 19.207031 C 30.871094 19.175781 30.796875 19.25 30.695312 19.253906 C 30.515625 19.261719 30.296875 19.125 30.230469 19.300781 C 30.417969 19.460938 30.675781 19.441406 30.972656 19.394531 C 31.042969 19.445312 31.160156 19.449219 31.203125 19.53125 C 31.359375 19.519531 31.378906 19.398438 31.480469 19.394531 C 31.53125 19.390625 31.507812 19.355469 31.527344 19.347656 C 31.671875 19.285156 31.902344 19.257812 31.945312 19.207031 C 31.957031 19.191406 32.066406 19.171875 32.085938 19.160156 C 32.136719 19.128906 32.171875 19.101562 32.222656 19.070312 C 32.371094 18.976562 32.511719 19.003906 32.683594 18.976562 C 32.777344 18.960938 32.859375 18.90625 32.964844 18.882812 C 33.132812 18.84375 33.292969 18.84375 33.332031 18.789062 C 33.34375 18.777344 33.410156 18.800781 33.425781 18.789062 C 33.433594 18.789062 33.421875 18.75 33.425781 18.746094 C 33.4375 18.730469 33.5 18.753906 33.519531 18.746094 C 33.523438 18.742188 33.515625 18.703125 33.519531 18.699219 C 33.53125 18.683594 33.59375 18.707031 33.609375 18.699219 C 33.617188 18.695312 33.605469 18.65625 33.609375 18.652344 C 33.621094 18.636719 33.6875 18.660156 33.703125 18.652344 C 33.710938 18.648438 33.699219 18.613281 33.703125 18.605469 C 33.714844 18.59375 33.78125 18.613281 33.796875 18.605469 C 33.90625 18.5625 34.039062 18.511719 34.074219 18.421875 C 33.835938 18.328125 33.566406 18.449219 33.285156 18.46875 C 32.980469 18.488281 32.582031 18.488281 32.40625 18.511719 C 32.121094 18.550781 31.898438 18.53125 31.621094 18.558594 C 31.574219 18.5625 31.566406 18.597656 31.527344 18.605469 C 31.378906 18.636719 31.226562 18.546875 31.203125 18.699219 C 31.402344 18.738281 31.65625 18.789062 31.804688 18.789062 C 31.953125 18.792969 32.003906 18.78125 32.039062 18.746094 C 32.0625 18.722656 32.191406 18.761719 32.175781 18.789062 C 31.863281 18.933594 31.386719 18.734375 31.113281 18.835938 C 30.957031 18.933594 31.289062 19.011719 31.15625 19.070312 " fill-opacity="1" fill-rule="nonzero"/><path fill="#ffffff" d="M 37.636719 20.6875 C 37.800781 20.652344 38.023438 20.710938 38.101562 20.550781 C 37.992188 20.535156 38.015625 20.390625 37.871094 20.410156 C 37.789062 20.398438 37.636719 20.542969 37.59375 20.410156 C 37.699219 20.425781 37.765625 20.398438 37.777344 20.320312 C 37.726562 20.308594 37.664062 20.242188 37.730469 20.226562 C 37.988281 20.257812 38.03125 20.546875 38.332031 20.410156 C 38.429688 20.175781 37.980469 20.125 37.871094 19.949219 C 38.167969 20.070312 38.398438 19.820312 38.65625 19.761719 C 38.722656 19.535156 38.90625 19.425781 39.027344 19.253906 C 38.960938 19.242188 38.972656 19.152344 38.933594 19.113281 C 39.054688 19.066406 39.089844 18.929688 39.210938 18.882812 C 39.5 18.863281 39.792969 18.847656 39.90625 18.652344 C 39.71875 18.523438 39.496094 18.6875 39.257812 18.652344 C 39.15625 18.582031 39.007812 18.5625 38.933594 18.46875 C 38.644531 18.476562 38.394531 18.355469 38.101562 18.375 C 37.949219 18.382812 37.792969 18.460938 37.636719 18.46875 C 37.53125 18.472656 37.441406 18.425781 37.3125 18.421875 C 37.144531 18.414062 37.070312 18.441406 36.945312 18.46875 C 36.65625 18.523438 36.363281 18.582031 36.109375 18.605469 C 35.992188 18.617188 35.890625 18.59375 35.785156 18.605469 C 35.703125 18.617188 35.644531 18.652344 35.554688 18.652344 C 35.210938 18.648438 34.9375 18.527344 34.675781 18.558594 C 34.535156 18.578125 34.367188 18.578125 34.257812 18.605469 C 34.253906 18.605469 34.261719 18.648438 34.257812 18.652344 C 34.25 18.664062 34.183594 18.644531 34.167969 18.652344 C 34.160156 18.65625 34.171875 18.691406 34.167969 18.699219 C 34.15625 18.710938 34.089844 18.691406 34.074219 18.699219 C 33.996094 18.734375 33.898438 18.789062 33.84375 18.789062 C 33.757812 18.796875 33.722656 18.878906 33.65625 18.882812 C 33.609375 18.886719 33.632812 18.921875 33.609375 18.929688 C 33.394531 19.023438 33.082031 18.984375 32.824219 19.023438 C 32.824219 19.023438 32.804688 19.0625 32.777344 19.070312 C 32.648438 19.101562 32.554688 19.035156 32.546875 19.160156 C 32.683594 19.191406 32.503906 19.261719 32.546875 19.347656 C 32.839844 19.585938 33.304688 19.375 33.703125 19.484375 C 33.828125 19.667969 34.085938 19.867188 33.980469 20.132812 C 34.050781 20.1875 34.171875 20.191406 34.214844 20.273438 C 34.1875 20.371094 34.269531 20.429688 34.257812 20.503906 C 34.230469 20.699219 34.046875 20.730469 33.933594 20.78125 C 33.917969 20.789062 33.90625 20.863281 33.890625 20.875 C 33.828125 20.910156 33.753906 20.902344 33.703125 20.964844 C 33.648438 21.039062 33.71875 21.105469 33.609375 21.152344 C 33.597656 21.285156 33.714844 21.292969 33.703125 21.429688 C 33.675781 21.527344 33.589844 21.5625 33.609375 21.707031 C 33.703125 21.753906 33.652344 21.855469 33.703125 21.9375 C 33.738281 21.996094 33.90625 22.121094 33.933594 22.125 C 34.019531 22.128906 34.054688 22.210938 34.121094 22.214844 C 34.167969 22.21875 34.144531 22.253906 34.167969 22.261719 C 34.351562 22.339844 34.414062 22.300781 34.492188 22.261719 C 34.707031 22.152344 34.71875 22.046875 34.859375 21.847656 C 34.867188 21.839844 34.898438 21.851562 34.90625 21.847656 C 34.921875 21.832031 34.894531 21.769531 34.90625 21.753906 C 34.933594 21.71875 35.011719 21.6875 35.046875 21.660156 C 35.0625 21.648438 35.035156 21.585938 35.046875 21.566406 C 35.097656 21.492188 35.222656 21.460938 35.277344 21.429688 C 35.289062 21.421875 35.300781 21.398438 35.324219 21.382812 C 35.515625 21.261719 35.953125 21.265625 36.15625 21.199219 C 36.167969 21.160156 36.207031 21.105469 36.25 21.105469 C 36.335938 21.101562 36.355469 21.003906 36.386719 20.964844 C 36.398438 20.953125 36.464844 20.976562 36.480469 20.964844 C 36.488281 20.960938 36.476562 20.925781 36.480469 20.921875 C 36.492188 20.90625 36.558594 20.929688 36.574219 20.921875 C 36.578125 20.917969 36.570312 20.878906 36.574219 20.875 C 36.585938 20.859375 36.648438 20.882812 36.664062 20.875 C 36.671875 20.871094 36.660156 20.832031 36.664062 20.828125 C 36.675781 20.8125 36.742188 20.835938 36.757812 20.828125 C 36.765625 20.824219 36.753906 20.785156 36.757812 20.78125 C 36.765625 20.769531 36.835938 20.785156 36.851562 20.78125 C 36.945312 20.761719 37.082031 20.832031 37.175781 20.828125 C 37.242188 20.824219 37.382812 20.761719 37.40625 20.734375 C 37.414062 20.722656 37.484375 20.738281 37.5 20.734375 C 37.554688 20.71875 37.601562 20.699219 37.636719 20.6875 " fill-opacity="1" fill-rule="nonzero"/><path fill="#ffffff" d="M 30.464844 19.070312 C 30.539062 19.058594 30.644531 18.933594 30.695312 18.929688 C 30.777344 18.925781 30.808594 18.832031 30.835938 18.789062 C 30.613281 18.53125 30.125 18.730469 29.953125 18.929688 C 30.078125 19.019531 30.324219 19.089844 30.464844 19.070312 " fill-opacity="1" fill-rule="nonzero"/><path fill="#ffffff" d="M 43.007812 19.394531 C 43.027344 19.574219 43.21875 19.582031 43.332031 19.671875 C 43.339844 19.617188 43.40625 19.621094 43.46875 19.625 C 43.535156 19.488281 43.636719 19.390625 43.792969 19.347656 C 43.871094 19.453125 44.050781 19.460938 44.117188 19.578125 C 44.179688 19.53125 44.289062 19.535156 44.304688 19.4375 C 44.171875 19.355469 43.976562 19.332031 43.886719 19.207031 C 44.0625 19.171875 44.109375 19.265625 44.257812 19.253906 C 44.355469 19.199219 44.429688 19.277344 44.488281 19.113281 C 44.355469 19 43.972656 19.140625 43.839844 19.023438 C 43.835938 18.996094 43.832031 18.96875 43.792969 18.976562 C 43.769531 19.042969 43.722656 19.089844 43.65625 19.113281 C 43.515625 19.015625 43.351562 19.152344 43.191406 19.160156 C 43.105469 19.167969 43.089844 19.121094 43.007812 19.113281 C 42.953125 19.113281 42.9375 19.15625 42.867188 19.160156 C 42.804688 19.164062 42.71875 19.078125 42.683594 19.160156 C 42.703125 19.328125 42.832031 19.382812 43.007812 19.394531 " fill-opacity="1" fill-rule="nonzero"/><path fill="#ffffff" d="M 30.511719 19.761719 C 30.757812 19.792969 30.773438 19.800781 30.925781 19.714844 C 31 19.675781 31.109375 19.65625 31.113281 19.578125 C 30.925781 19.425781 30.441406 19.480469 30.1875 19.53125 C 30.023438 19.476562 29.9375 19.347656 29.722656 19.347656 C 29.625 19.449219 29.4375 19.460938 29.445312 19.671875 C 29.664062 19.714844 29.976562 19.753906 30.140625 19.761719 C 30.257812 19.769531 30.375 19.746094 30.511719 19.761719 " fill-opacity="1" fill-rule="nonzero"/><path fill="#ffffff" d="M 48.792969 20.597656 C 48.472656 20.621094 48.332031 20.472656 48.097656 20.410156 C 48.023438 20.34375 48.230469 20.257812 48.191406 20.226562 C 48.144531 20.191406 48.160156 20.117188 48.328125 20.085938 C 48.273438 20.003906 48.332031 19.949219 48.40625 19.890625 C 48.511719 19.976562 48.613281 20.0625 48.714844 20.148438 C 48.6875 20.199219 48.664062 20.253906 48.652344 20.320312 C 48.640625 20.472656 48.929688 20.453125 48.792969 20.597656 " fill-opacity="1" fill-rule="nonzero"/><path fill="#ffffff" d="M 27.316406 20.457031 C 27.117188 20.683594 26.726562 20.804688 26.390625 20.640625 C 26.285156 20.675781 26.148438 20.714844 26.019531 20.78125 C 25.976562 20.804688 25.921875 20.855469 25.789062 20.828125 C 25.75 20.820312 25.742188 20.789062 25.695312 20.78125 C 25.625 20.773438 25.574219 20.777344 25.523438 20.773438 C 25.800781 20.515625 26.082031 20.265625 26.371094 20.023438 C 26.378906 20.03125 26.386719 20.035156 26.390625 20.039062 C 26.507812 20.035156 26.554688 19.957031 26.621094 19.902344 C 26.714844 19.9375 26.789062 20.0625 26.714844 20.132812 C 26.9375 20.125 26.890625 19.847656 27.175781 19.902344 C 27.269531 20.019531 27.140625 20.207031 27.039062 20.273438 C 27.109375 20.355469 27.238281 20.378906 27.316406 20.457031 " fill-opacity="1" fill-rule="nonzero"/><path fill="#ffffff" d="M 27.964844 20.273438 C 28.078125 20.28125 28.125 20.191406 28.148438 20.179688 C 28.183594 20.164062 28.257812 20.199219 28.289062 20.179688 C 28.371094 20.125 28.453125 19.964844 28.472656 19.902344 C 28.496094 19.835938 28.527344 19.824219 28.472656 19.761719 C 28.332031 19.761719 28.140625 19.847656 28.101562 19.855469 C 27.953125 19.894531 28.007812 19.925781 27.917969 19.996094 C 27.816406 19.96875 27.617188 19.882812 27.59375 20.039062 C 27.683594 20.0625 27.710938 20.140625 27.824219 20.132812 C 27.804688 20.253906 27.898438 20.265625 27.964844 20.273438 " fill-opacity="1" fill-rule="nonzero"/><path fill="#ffffff" d="M 29.121094 20.039062 C 29.164062 19.960938 29.292969 19.964844 29.308594 19.855469 C 29.1875 19.730469 28.835938 19.753906 28.75 19.855469 C 28.738281 19.871094 28.675781 19.84375 28.660156 19.855469 C 28.578125 19.917969 28.492188 20.023438 28.566406 20.085938 C 28.71875 20.191406 28.855469 19.964844 29.121094 20.039062 " fill-opacity="1" fill-rule="nonzero"/><path fill="#ffffff" d="M 29.261719 20.085938 C 29.25 20.089844 29.222656 20.167969 29.214844 20.179688 C 29.171875 20.230469 29.109375 20.28125 29.121094 20.363281 C 29.382812 20.605469 29.84375 20.375 30.1875 20.550781 C 30.300781 20.511719 30.367188 20.421875 30.511719 20.410156 C 30.585938 20.492188 30.683594 20.546875 30.789062 20.597656 C 30.777344 20.761719 30.925781 20.765625 30.925781 20.921875 C 31.003906 20.996094 31.132812 21.019531 31.203125 21.105469 C 30.996094 21.171875 30.917969 21.121094 30.742188 21.058594 C 30.710938 21.121094 30.640625 21.144531 30.554688 21.152344 C 30.488281 21.207031 30.5 21.34375 30.371094 21.335938 C 30.121094 21.289062 29.804688 21.242188 29.722656 21.476562 C 29.914062 21.660156 30.105469 21.433594 30.417969 21.476562 C 30.417969 21.613281 30.539062 21.632812 30.554688 21.753906 C 30.742188 21.839844 31.125 22.171875 31.296875 21.847656 C 31.191406 21.796875 31.09375 21.742188 31.019531 21.660156 C 31.230469 21.636719 31.296875 21.753906 31.4375 21.800781 C 31.4375 21.707031 31.5625 21.742188 31.527344 21.613281 C 31.699219 21.515625 31.359375 21.296875 31.480469 21.246094 C 31.65625 21.125 31.789062 21.378906 31.992188 21.382812 C 32.085938 21.292969 32.195312 21.21875 32.222656 21.058594 C 32.070312 20.910156 31.683594 20.832031 31.851562 20.503906 C 31.726562 20.394531 31.554688 20.335938 31.34375 20.320312 C 31.285156 20.222656 31.214844 20.136719 31.15625 20.039062 C 31.023438 20.027344 31.015625 20.144531 30.878906 20.132812 C 30.699219 20.078125 30.511719 19.847656 30.324219 19.855469 C 30.28125 19.859375 30.289062 19.898438 30.277344 19.902344 C 30.144531 19.9375 30.101562 19.914062 30.046875 19.949219 C 29.960938 20.003906 29.894531 20.054688 29.863281 20.132812 C 29.808594 20.128906 29.789062 20.199219 29.769531 20.132812 C 29.800781 19.996094 30.066406 19.945312 29.953125 19.808594 C 29.835938 19.835938 29.683594 19.816406 29.585938 19.855469 C 29.578125 19.859375 29.546875 19.9375 29.539062 19.949219 C 29.523438 19.964844 29.460938 19.933594 29.445312 19.949219 C 29.40625 19.980469 29.390625 20.054688 29.351562 20.085938 C 29.335938 20.101562 29.28125 20.078125 29.261719 20.085938 " fill-opacity="1" fill-rule="nonzero"/><path fill="#ffffff" d="M 27.546875 20.828125 C 27.710938 20.773438 27.878906 20.726562 27.964844 20.597656 C 27.804688 20.441406 27.5 20.519531 27.410156 20.6875 C 27.476562 20.714844 27.523438 20.761719 27.546875 20.828125 " fill-opacity="1" fill-rule="nonzero"/><path fill="#ffffff" d="M 37.914062 21.613281 C 38.09375 21.515625 38.21875 21.65625 38.332031 21.753906 C 38.6875 21.660156 39.085938 21.613281 39.257812 21.335938 C 39.121094 21.238281 39.09375 21.175781 38.933594 21.152344 C 38.839844 21.136719 38.742188 21.246094 38.609375 21.246094 C 38.53125 21.246094 38.472656 21.175781 38.378906 21.199219 C 38.28125 21.226562 38.246094 21.3125 38.101562 21.289062 C 37.96875 21.28125 38.042969 21.070312 37.871094 21.105469 C 37.859375 21.171875 37.769531 21.160156 37.730469 21.199219 C 37.695312 21.355469 37.902344 21.273438 37.914062 21.382812 C 37.839844 21.394531 37.914062 21.433594 37.914062 21.476562 C 37.917969 21.542969 37.84375 21.554688 37.914062 21.613281 " fill-opacity="1" fill-rule="nonzero"/><path fill="#ffffff" d="M 28.472656 21.660156 C 28.582031 21.757812 28.769531 21.648438 28.890625 21.613281 C 28.984375 21.660156 29.074219 21.707031 29.167969 21.753906 C 29.191406 21.699219 29.21875 21.648438 29.261719 21.613281 C 29.210938 21.386719 28.996094 21.324219 28.75 21.289062 C 28.664062 21.40625 28.378906 21.507812 28.472656 21.660156 " fill-opacity="1" fill-rule="nonzero"/><path fill="#ffffff" d="M 40.277344 23.28125 C 40.398438 23.339844 40.414062 23.382812 40.554688 23.328125 C 40.519531 23.46875 40.632812 23.464844 40.601562 23.605469 C 40.457031 23.601562 40.363281 23.648438 40.324219 23.742188 C 40.484375 23.824219 40.207031 23.835938 40.230469 23.929688 C 40.304688 24.011719 40.476562 23.988281 40.554688 24.066406 C 40.378906 24.089844 40.207031 24.121094 40.136719 24.253906 C 40.4375 24.34375 40.789062 24.109375 41.203125 24.160156 C 41.296875 24.066406 41.183594 24.070312 41.15625 23.976562 C 41.25 23.929688 41.351562 23.894531 41.386719 23.789062 C 41.316406 23.734375 41.207031 23.640625 41.109375 23.742188 C 41.117188 23.675781 41.078125 23.644531 41.0625 23.605469 C 41.042969 23.554688 41.050781 23.480469 41.015625 23.417969 C 41 23.382812 40.925781 23.386719 40.925781 23.328125 C 40.921875 23.273438 40.71875 23.082031 40.738281 23.09375 C 40.695312 23.070312 40.601562 23.117188 40.601562 23.050781 C 40.683594 23.007812 40.742188 22.945312 40.785156 22.863281 C 40.730469 22.824219 40.660156 22.804688 40.554688 22.816406 C 40.621094 22.75 40.589844 22.671875 40.460938 22.679688 C 40.449219 22.714844 40.421875 22.734375 40.367188 22.726562 C 40.351562 22.800781 40.28125 22.847656 40.277344 22.910156 C 40.273438 22.945312 40.230469 22.953125 40.230469 22.957031 C 40.210938 23.058594 40.363281 23.160156 40.277344 23.28125 " fill-opacity="1" fill-rule="nonzero"/><path fill="#ffffff" d="M 39.722656 23.375 C 39.699219 23.386719 39.652344 23.367188 39.628906 23.375 C 39.542969 23.394531 39.511719 23.449219 39.441406 23.464844 C 39.410156 23.59375 39.535156 23.558594 39.535156 23.652344 C 39.460938 23.714844 39.417969 23.8125 39.398438 23.929688 C 39.460938 23.941406 39.449219 24.03125 39.488281 24.066406 C 39.6875 23.988281 39.902344 23.925781 40.089844 23.835938 C 40.039062 23.566406 40.1875 23.5 40.230469 23.328125 C 40.09375 23.21875 39.984375 23.203125 39.8125 23.234375 C 39.792969 23.238281 39.746094 23.359375 39.722656 23.375 " fill-opacity="1" fill-rule="nonzero"/><path fill="#ffffff" d="M 31.714844 24.066406 C 31.476562 24.09375 31.40625 24.285156 31.296875 24.4375 C 31.140625 24.449219 31.132812 24.550781 31.066406 24.621094 C 31.015625 24.671875 30.933594 24.679688 30.925781 24.761719 C 31.257812 24.855469 31.886719 24.945312 32.085938 24.667969 C 32.003906 24.628906 32 24.507812 31.945312 24.4375 C 31.828125 24.433594 31.722656 24.410156 31.667969 24.34375 C 31.527344 24.222656 31.855469 24.1875 31.714844 24.066406 " fill-opacity="1" fill-rule="nonzero"/><path fill="#ffffff" d="M 42.589844 25.734375 C 42.578125 25.796875 42.488281 25.785156 42.453125 25.828125 C 42.441406 25.976562 42.507812 26.050781 42.636719 26.058594 C 42.699219 25.996094 42.726562 25.734375 42.589844 25.734375 " fill-opacity="1" fill-rule="nonzero"/><path fill="#ffffff" d="M 42.359375 26.242188 C 42.402344 26.382812 42.414062 26.558594 42.542969 26.613281 C 42.550781 26.527344 42.699219 26.582031 42.683594 26.472656 C 42.683594 26.382812 42.683594 26.289062 42.683594 26.195312 C 42.589844 26.195312 42.625 26.070312 42.496094 26.105469 C 42.472656 26.171875 42.425781 26.21875 42.359375 26.242188 " fill-opacity="1" fill-rule="nonzero"/><path fill="#ffffff" d="M 41.574219 26.382812 C 41.464844 26.28125 41.285156 26.363281 41.292969 26.519531 C 41.402344 26.621094 41.582031 26.539062 41.574219 26.382812 " fill-opacity="1" fill-rule="nonzero"/><path fill="#ffffff" d="M 43.703125 26.796875 C 43.53125 26.714844 43.242188 26.65625 43.144531 26.84375 C 43.300781 26.921875 43.453125 27 43.609375 27.078125 C 43.644531 26.988281 43.6875 26.90625 43.703125 26.796875 " fill-opacity="1" fill-rule="nonzero"/><path fill="#ffffff" d="M 47.082031 27.214844 C 46.921875 27.257812 46.75 27.285156 46.617188 27.355469 C 46.636719 27.578125 46.855469 27.53125 47.035156 27.492188 C 47.101562 27.441406 47.023438 27.398438 47.035156 27.355469 C 47.039062 27.332031 47.179688 27.285156 47.082031 27.214844 " fill-opacity="1" fill-rule="nonzero"/><path fill="#ffffff" d="M 45.738281 27.355469 C 45.617188 27.28125 45.183594 27.164062 45.089844 27.355469 C 45.234375 27.445312 45.652344 27.617188 45.738281 27.355469 " fill-opacity="1" fill-rule="nonzero"/><path fill="#ffffff" d="M 26.25 29.621094 C 26.269531 29.511719 26.167969 29.519531 26.207031 29.390625 C 26.285156 29.394531 26.324219 29.355469 26.34375 29.296875 C 26.253906 29.203125 26.125 29.3125 26.019531 29.34375 C 25.921875 29.492188 26.140625 29.699219 26.25 29.621094 " fill-opacity="1" fill-rule="nonzero"/><path fill="#ffffff" d="M 26.808594 30.457031 C 26.695312 30.367188 26.625 30.296875 26.484375 30.269531 C 26.394531 30.253906 26.359375 30.179688 26.296875 30.175781 C 26.246094 30.175781 26.277344 30.144531 26.25 30.132812 C 26.039062 30.019531 25.832031 29.875 25.605469 29.851562 C 25.476562 29.839844 25.277344 29.820312 25.140625 29.851562 C 25.136719 29.855469 25.144531 29.894531 25.140625 29.898438 C 25.128906 29.914062 25.066406 29.890625 25.046875 29.898438 C 25.042969 29.902344 25.054688 29.941406 25.046875 29.945312 C 25.035156 29.960938 24.972656 29.933594 24.957031 29.945312 C 24.949219 29.949219 24.960938 29.984375 24.957031 29.992188 C 24.910156 30.050781 24.757812 29.992188 24.816406 30.132812 C 24.960938 30.242188 25.109375 30.046875 25.28125 30.039062 C 25.367188 30.089844 25.472656 30.050781 25.558594 30.085938 C 25.578125 30.09375 25.625 30.164062 25.648438 30.175781 C 25.703125 30.207031 25.746094 30.195312 25.789062 30.222656 C 25.820312 30.242188 25.84375 30.292969 25.882812 30.316406 C 25.929688 30.347656 25.992188 30.359375 26.019531 30.410156 C 25.925781 30.433594 25.921875 30.480469 25.972656 30.546875 C 26.222656 30.464844 26.617188 30.722656 26.808594 30.457031 " fill-opacity="1" fill-rule="nonzero"/><path fill="#ffffff" d="M 26.898438 30.085938 C 26.8125 29.996094 26.660156 30.078125 26.621094 30.175781 C 26.691406 30.25 26.9375 30.257812 26.898438 30.085938 " fill-opacity="1" fill-rule="nonzero"/><path fill="#ffffff" d="M 27.222656 31.011719 C 27.371094 30.878906 27.722656 30.957031 27.824219 30.777344 C 27.664062 30.664062 27.546875 30.582031 27.363281 30.546875 C 27.261719 30.527344 27.277344 30.601562 27.222656 30.546875 C 27.171875 30.492188 27 30.585938 26.945312 30.546875 C 26.859375 30.628906 26.964844 30.683594 26.992188 30.777344 C 26.835938 30.859375 26.621094 30.675781 26.53125 30.871094 C 26.726562 31.050781 27.039062 30.828125 27.222656 31.011719 " fill-opacity="1" fill-rule="nonzero"/><path fill="#ffffff" d="M 25.835938 30.824219 C 25.804688 31.027344 26.242188 31.089844 26.296875 30.917969 C 26.203125 30.832031 25.992188 30.703125 25.835938 30.824219 " fill-opacity="1" fill-rule="nonzero"/><path fill="#ffffff" d="M 27.917969 30.917969 C 28.003906 31.050781 28.304688 31.046875 28.289062 30.824219 C 28.179688 30.730469 27.933594 30.777344 27.917969 30.917969 " fill-opacity="1" fill-rule="nonzero"/><path fill="#ffffff" d="M 50.179688 37.304688 C 50.140625 37.390625 50.113281 37.488281 50.089844 37.535156 C 50.070312 37.570312 50.070312 37.640625 50.042969 37.675781 C 50.011719 37.714844 49.945312 37.691406 49.902344 37.722656 C 49.773438 37.8125 49.71875 38.003906 49.578125 38.046875 C 49.4375 38.042969 49.359375 38.101562 49.253906 38.136719 C 49.214844 38.273438 49.167969 38.351562 49.164062 38.507812 C 49.15625 38.640625 49.230469 38.78125 49.210938 38.925781 C 49.148438 39.101562 48.953125 39.25 48.929688 39.480469 C 48.925781 39.554688 48.960938 39.679688 48.976562 39.757812 C 49.003906 39.867188 49 39.949219 49.070312 40.035156 C 49.148438 40.015625 49.292969 40.132812 49.253906 40.128906 C 49.402344 40.152344 49.488281 40.027344 49.671875 40.035156 C 49.667969 39.988281 49.714844 39.980469 49.71875 39.945312 C 49.722656 39.859375 49.808594 39.824219 49.8125 39.757812 C 49.8125 39.714844 49.851562 39.726562 49.855469 39.710938 C 49.898438 39.585938 49.855469 39.410156 49.902344 39.25 C 49.90625 39.246094 49.941406 39.226562 49.949219 39.203125 C 49.953125 39.191406 49.949219 39.167969 49.949219 39.15625 C 49.953125 39.109375 49.988281 39.128906 49.996094 39.109375 C 50.085938 38.894531 50.117188 38.734375 50.179688 38.554688 C 50.355469 38.0625 50.566406 37.648438 50.179688 37.304688 " fill-opacity="1" fill-rule="nonzero"/><path fill="#ffffff" d="M 29.816406 45.683594 C 29.769531 45.683594 29.722656 45.683594 29.675781 45.683594 C 29.613281 45.773438 29.554688 45.871094 29.539062 46.007812 C 29.636719 46.011719 29.648438 46.152344 29.722656 46.191406 C 29.828125 46.246094 29.90625 46.207031 29.953125 46.238281 C 30.0625 46.3125 30.050781 46.253906 30.140625 46.238281 C 30.132812 46.238281 30.152344 46.285156 30.1875 46.285156 C 30.1875 46.285156 30.183594 46.242188 30.1875 46.238281 C 30.269531 46.136719 30.640625 46.367188 30.648438 46.144531 C 30.546875 46.109375 30.46875 46.046875 30.324219 46.054688 C 30.199219 45.882812 29.96875 45.824219 29.816406 45.683594 " fill-opacity="1" fill-rule="nonzero"/><path fill="#ffffff" d="M 26.066406 29.25 C 26.210938 29.273438 26.1875 29.128906 26.296875 29.113281 C 26.34375 29.175781 26.34375 29.285156 26.4375 29.296875 C 26.5625 29.015625 26.316406 29.035156 26.066406 29.019531 C 26.027344 29.128906 26.027344 29.144531 26.066406 29.25 " fill-opacity="1" fill-rule="nonzero"/><path fill="#ffffff" d="M 26.53125 24.761719 C 26.535156 24.84375 26.472656 24.859375 26.484375 24.945312 C 26.515625 25.054688 26.636719 25.070312 26.667969 25.179688 C 26.785156 25.214844 26.882812 24.996094 26.945312 25.132812 C 27.121094 25.144531 27.132812 25.289062 27.085938 25.410156 C 27.003906 25.414062 26.988281 25.351562 26.898438 25.363281 C 26.765625 25.460938 26.699219 25.714844 26.484375 25.59375 C 26.375 25.476562 26.578125 25.382812 26.621094 25.269531 C 26.410156 24.984375 26.078125 25.402344 25.929688 25.503906 C 25.914062 25.671875 25.8125 25.757812 25.789062 25.917969 C 25.644531 25.894531 25.667969 26.078125 25.558594 25.964844 C 25.464844 25.859375 25.632812 25.730469 25.695312 25.640625 C 25.726562 25.488281 25.839844 25.414062 25.882812 25.269531 C 26.066406 25.195312 26.292969 25.15625 26.484375 25.085938 C 26.46875 25.023438 26.402344 25.011719 26.390625 24.945312 C 26.167969 25.027344 26.042969 24.945312 25.882812 24.855469 C 25.671875 24.898438 25.605469 25.042969 25.371094 24.945312 C 25.539062 24.804688 25.71875 24.675781 26.019531 24.667969 C 26.148438 24.566406 26.253906 24.582031 26.4375 24.621094 C 26.433594 24.703125 26.472656 24.742188 26.53125 24.761719 Z M 26.714844 25.917969 C 26.691406 25.949219 26.585938 26.046875 26.4375 26.011719 C 26.402344 25.867188 26.582031 25.90625 26.667969 25.871094 C 26.6875 25.867188 26.75 25.78125 26.761719 25.78125 C 26.835938 25.765625 26.839844 25.824219 26.898438 25.828125 C 26.914062 25.921875 26.761719 25.859375 26.714844 25.917969 Z M 27.640625 25.503906 C 27.589844 25.636719 27.417969 25.652344 27.222656 25.640625 C 27.3125 25.546875 27.457031 25.503906 27.640625 25.503906 Z M 34.167969 36.148438 C 34.078125 36.058594 34.125 35.90625 34.027344 35.824219 C 33.648438 35.753906 33.335938 35.621094 33.195312 35.316406 C 32.933594 35.296875 32.695312 35.257812 32.453125 35.222656 C 32.316406 35.183594 32.226562 35.421875 32.175781 35.316406 C 32.304688 35.023438 31.933594 34.9375 31.714844 34.851562 C 31.515625 34.902344 31.480469 35.113281 31.25 35.128906 C 31.304688 34.972656 31.546875 34.953125 31.4375 34.757812 C 31.382812 34.738281 31.332031 34.710938 31.296875 34.667969 C 30.964844 34.65625 30.964844 34.980469 30.695312 35.039062 C 30.726562 34.816406 30.984375 34.777344 31.066406 34.667969 C 31.113281 34.597656 31.054688 34.519531 31.15625 34.480469 C 31.15625 34.34375 31.039062 34.324219 31.019531 34.203125 C 31.054688 34.0625 30.9375 34.066406 30.972656 33.925781 C 30.804688 33.84375 30.726562 33.65625 30.601562 33.554688 C 30.546875 33.511719 30.453125 33.523438 30.371094 33.507812 C 30.3125 33.5 30.308594 33.464844 30.230469 33.464844 C 30.164062 33.464844 30.070312 33.527344 30 33.507812 C 29.703125 33.441406 29.503906 33.289062 29.398438 33 C 29.265625 32.933594 29.144531 32.851562 29.050781 32.746094 C 28.957031 32.703125 28.871094 32.648438 28.789062 32.582031 C 28.785156 32.605469 28.78125 32.628906 28.75 32.628906 C 28.664062 32.609375 28.636719 32.53125 28.519531 32.539062 C 28.515625 32.539062 28.511719 32.542969 28.507812 32.542969 C 28.246094 32.648438 28.011719 32.453125 27.734375 32.445312 C 27.722656 32.269531 27.542969 32.265625 27.410156 32.214844 C 27.355469 32.25 27.304688 32.289062 27.253906 32.328125 C 27.253906 32.328125 27.253906 32.332031 27.253906 32.332031 C 27.199219 32.371094 27.144531 32.410156 27.085938 32.445312 C 27.070312 32.550781 27.097656 32.621094 27.175781 32.628906 C 27.128906 32.691406 27.132812 32.800781 27.039062 32.816406 C 27.007812 32.691406 27.003906 32.546875 27.039062 32.398438 C 27.050781 32.355469 27.074219 32.320312 27.097656 32.285156 C 27.144531 32.222656 27.1875 32.171875 27.132812 32.121094 C 26.984375 32.097656 26.921875 32.152344 26.867188 32.21875 C 26.824219 32.269531 26.785156 32.328125 26.714844 32.351562 C 26.507812 32.3125 26.484375 32.460938 26.34375 32.492188 C 26.257812 32.683594 26.175781 32.878906 25.972656 32.953125 C 25.90625 32.835938 25.796875 32.761719 25.652344 32.722656 C 25.414062 32.703125 25.328125 32.832031 25.140625 32.863281 C 25.128906 32.769531 24.996094 32.800781 24.957031 32.769531 C 24.921875 32.742188 24.894531 32.636719 24.863281 32.585938 C 24.859375 32.578125 24.824219 32.589844 24.816406 32.585938 C 24.804688 32.574219 24.824219 32.507812 24.816406 32.492188 C 24.8125 32.484375 24.777344 32.496094 24.769531 32.492188 C 24.703125 32.4375 24.808594 32.214844 24.816406 32.167969 C 24.839844 32.023438 24.851562 31.945312 24.863281 31.890625 C 24.882812 31.792969 24.894531 31.71875 24.894531 31.652344 C 24.894531 31.648438 24.894531 31.648438 24.894531 31.648438 C 24.894531 31.558594 24.882812 31.492188 24.863281 31.425781 C 24.753906 31.378906 24.632812 31.339844 24.492188 31.335938 C 24.316406 31.324219 24.085938 31.472656 23.9375 31.335938 C 24.09375 30.980469 24.273438 30.652344 24.398438 30.269531 C 24.234375 30.109375 23.957031 30.214844 23.753906 30.269531 C 23.695312 30.382812 23.636719 30.496094 23.613281 30.640625 C 23.4375 30.777344 23.011719 30.917969 22.828125 30.824219 C 22.792969 30.808594 22.71875 30.804688 22.6875 30.777344 C 22.648438 30.746094 22.671875 30.683594 22.640625 30.640625 C 22.617188 30.601562 22.570312 30.601562 22.550781 30.546875 C 22.507812 30.445312 22.523438 30.394531 22.503906 30.316406 C 22.496094 30.289062 22.457031 30.269531 22.457031 30.269531 C 22.378906 29.960938 22.425781 29.886719 22.503906 29.667969 C 22.53125 29.589844 22.59375 29.480469 22.597656 29.4375 C 22.597656 29.363281 22.671875 29.359375 22.597656 29.296875 C 22.5625 29.273438 22.640625 29.242188 22.640625 29.25 C 22.683594 29.054688 22.726562 29.046875 22.734375 28.925781 C 22.820312 28.878906 22.902344 28.808594 22.917969 28.789062 C 22.929688 28.773438 22.996094 28.796875 23.011719 28.789062 C 23.015625 28.785156 23.007812 28.746094 23.011719 28.742188 C 23.023438 28.726562 23.085938 28.753906 23.105469 28.742188 C 23.109375 28.738281 23.097656 28.703125 23.105469 28.695312 C 23.117188 28.679688 23.179688 28.707031 23.195312 28.695312 C 23.230469 28.671875 23.230469 28.605469 23.289062 28.601562 C 23.34375 28.601562 23.308594 28.574219 23.335938 28.558594 C 23.484375 28.460938 23.683594 28.457031 23.796875 28.511719 C 23.925781 28.570312 24.070312 28.640625 24.261719 28.648438 C 24.355469 28.398438 24.472656 28.339844 24.679688 28.324219 C 24.738281 28.320312 24.953125 28.460938 25.003906 28.464844 C 25.035156 28.464844 25.046875 28.511719 25.046875 28.511719 C 25.164062 28.523438 25.214844 28.445312 25.328125 28.464844 C 25.371094 28.542969 25.445312 28.585938 25.464844 28.695312 C 25.480469 28.777344 25.410156 28.871094 25.417969 28.972656 C 25.421875 29.015625 25.445312 29.0625 25.464844 29.113281 C 25.476562 29.144531 25.507812 29.148438 25.511719 29.160156 C 25.527344 29.195312 25.492188 29.261719 25.511719 29.296875 C 25.523438 29.320312 25.585938 29.371094 25.605469 29.390625 C 25.640625 29.429688 25.683594 29.464844 25.742188 29.484375 C 26.058594 29.21875 25.8125 28.757812 25.835938 28.277344 C 25.941406 28.21875 25.941406 28.082031 26.019531 28 C 26.042969 27.980469 26.136719 27.96875 26.160156 27.957031 C 26.171875 27.949219 26.183594 27.921875 26.207031 27.910156 C 26.292969 27.855469 26.328125 27.816406 26.390625 27.769531 C 26.4375 27.734375 26.480469 27.707031 26.53125 27.679688 C 26.585938 27.640625 26.644531 27.667969 26.714844 27.632812 C 26.734375 27.621094 26.78125 27.558594 26.808594 27.539062 C 26.824219 27.527344 26.839844 27.515625 26.851562 27.503906 C 26.976562 27.410156 27.097656 27.3125 27.132812 27.167969 C 27.25 27.046875 27.023438 26.792969 27.222656 26.707031 C 27.222656 26.785156 27.257812 26.824219 27.316406 26.84375 C 27.378906 26.785156 27.34375 26.625 27.410156 26.566406 C 27.523438 26.527344 27.589844 26.441406 27.734375 26.429688 C 27.800781 26.359375 27.816406 26.234375 27.917969 26.195312 C 28.132812 26.121094 28.359375 26.050781 28.566406 25.964844 C 28.617188 25.863281 28.644531 25.734375 28.703125 25.640625 C 28.851562 25.59375 28.957031 25.558594 29.074219 25.503906 C 29.140625 25.472656 29.207031 25.414062 29.261719 25.410156 C 29.320312 25.40625 29.34375 25.335938 29.398438 25.316406 C 29.386719 25.320312 29.414062 25.371094 29.445312 25.363281 C 29.441406 25.363281 29.472656 25.324219 29.492188 25.316406 C 29.609375 25.273438 29.804688 25.171875 29.910156 25.269531 C 29.695312 25.289062 29.410156 25.429688 29.492188 25.59375 C 29.667969 25.667969 29.855469 25.488281 30.046875 25.410156 C 30.121094 25.378906 30.246094 25.394531 30.324219 25.363281 C 30.324219 25.363281 30.359375 25.324219 30.371094 25.316406 C 30.421875 25.285156 30.425781 25.269531 30.464844 25.222656 C 30.472656 25.214844 30.488281 25.207031 30.507812 25.203125 C 30.554688 25.195312 30.613281 25.195312 30.601562 25.132812 C 30.585938 25.117188 30.566406 25.105469 30.546875 25.097656 C 30.429688 25.050781 30.308594 25.167969 30.140625 25.132812 C 30.046875 25.054688 29.941406 24.992188 29.910156 24.855469 C 30.015625 24.746094 30.140625 24.65625 30.1875 24.484375 C 29.882812 24.347656 29.527344 24.527344 29.351562 24.667969 C 29.273438 24.652344 29.234375 24.738281 29.214844 24.667969 C 29.332031 24.550781 29.519531 24.503906 29.675781 24.4375 C 29.734375 24.414062 29.757812 24.359375 29.816406 24.347656 C 29.875 24.332031 29.914062 24.308594 29.953125 24.300781 C 30.085938 24.265625 30.085938 24.261719 30.1875 24.253906 C 30.355469 24.238281 30.527344 24.3125 30.695312 24.300781 C 30.726562 24.296875 30.792969 24.28125 30.851562 24.269531 C 30.878906 24.265625 30.90625 24.257812 30.925781 24.253906 C 30.96875 24.242188 31.015625 24.238281 31.058594 24.230469 C 31.117188 24.222656 31.167969 24.21875 31.203125 24.207031 C 31.207031 24.207031 31.199219 24.164062 31.203125 24.160156 C 31.214844 24.144531 31.28125 24.167969 31.296875 24.160156 C 31.324219 24.144531 31.359375 24.082031 31.390625 24.066406 C 31.414062 24.054688 31.453125 24.074219 31.480469 24.066406 C 31.484375 24.066406 31.484375 24.066406 31.488281 24.066406 C 31.519531 24.054688 31.515625 24.027344 31.527344 24.019531 C 31.769531 23.925781 31.933594 23.835938 31.992188 23.605469 C 31.910156 23.5625 31.847656 23.5 31.804688 23.417969 C 31.582031 23.378906 31.5 23.484375 31.34375 23.511719 C 31.347656 23.394531 31.523438 23.445312 31.527344 23.328125 C 31.425781 23.230469 31.394531 23.058594 31.296875 22.957031 C 31.359375 22.925781 31.382812 22.859375 31.390625 22.773438 C 31.214844 22.671875 31.441406 22.355469 31.203125 22.261719 C 31.023438 22.433594 30.800781 22.570312 30.554688 22.679688 C 30.542969 22.585938 30.429688 22.589844 30.417969 22.492188 C 30.445312 22.398438 30.53125 22.363281 30.511719 22.214844 C 30.464844 22.199219 30.449219 22.15625 30.417969 22.125 C 30.335938 22.042969 30.195312 21.976562 30.140625 21.9375 C 30.0625 21.886719 30.015625 21.898438 29.910156 21.890625 C 29.875 21.890625 29.863281 21.84375 29.863281 21.84375 C 29.675781 21.820312 29.609375 21.863281 29.585938 21.890625 C 29.554688 21.929688 29.4375 21.910156 29.398438 21.9375 C 29.34375 22.082031 29.242188 22.183594 29.214844 22.355469 C 29.09375 22.421875 28.953125 22.464844 28.9375 22.632812 C 28.917969 22.746094 29.019531 22.734375 28.984375 22.863281 C 28.90625 22.964844 28.847656 23.066406 28.75 23.140625 C 28.71875 23.167969 28.683594 23.1875 28.648438 23.207031 C 28.492188 23.289062 28.304688 23.328125 28.195312 23.464844 C 28.167969 23.636719 28.085938 23.757812 28.058594 23.929688 C 27.910156 23.921875 27.902344 24.050781 27.734375 24.019531 C 27.742188 23.90625 27.660156 23.878906 27.640625 23.789062 C 27.703125 23.636719 27.761719 23.480469 27.824219 23.328125 C 27.714844 23.238281 27.5625 23.191406 27.363281 23.1875 C 27.183594 23.011719 26.929688 22.914062 26.621094 22.863281 C 26.632812 22.777344 26.570312 22.761719 26.574219 22.679688 C 26.589844 22.570312 26.441406 22.628906 26.4375 22.539062 C 26.539062 22.453125 26.527344 22.34375 26.621094 22.261719 C 26.667969 22.222656 26.753906 22.246094 26.808594 22.214844 C 26.808594 22.214844 26.851562 22.171875 26.851562 22.167969 C 26.890625 22.132812 26.953125 22.117188 26.992188 22.078125 C 27.035156 22.035156 27.078125 22.019531 27.132812 21.984375 C 27.269531 21.894531 27.449219 21.882812 27.59375 21.800781 C 27.707031 21.738281 27.511719 21.660156 27.640625 21.613281 C 27.875 21.738281 28.144531 21.542969 28.382812 21.523438 C 28.539062 21.410156 28.160156 21.316406 28.289062 21.246094 C 28.375 21.265625 28.40625 21.34375 28.519531 21.335938 C 28.636719 21.296875 28.703125 21.210938 28.84375 21.199219 C 29.253906 21.222656 29.597656 21.183594 29.675781 20.875 C 29.824219 20.878906 29.835938 20.753906 29.863281 20.640625 C 29.757812 20.574219 29.640625 20.527344 29.445312 20.550781 C 29.246094 20.707031 29.097656 20.910156 28.796875 20.96875 C 28.773438 20.796875 29 20.757812 28.890625 20.640625 C 28.773438 20.550781 28.675781 20.691406 28.613281 20.597656 C 28.472656 20.472656 28.753906 20.351562 28.613281 20.226562 C 28.382812 20.136719 28.097656 20.347656 27.964844 20.503906 C 28.046875 20.550781 28.210938 20.582031 28.101562 20.6875 C 28.0625 20.769531 27.957031 20.789062 27.824219 20.78125 C 27.734375 20.875 27.605469 20.933594 27.5 21.011719 C 27.441406 20.917969 27.347656 20.855469 27.222656 20.828125 C 27.007812 20.882812 26.847656 20.878906 26.667969 20.828125 C 26.613281 20.8125 26.503906 20.785156 26.484375 20.734375 C 26.324219 20.746094 26.261719 20.851562 26.066406 20.828125 C 26.054688 20.863281 26.027344 20.882812 25.972656 20.875 C 25.90625 20.945312 25.890625 21.070312 25.789062 21.105469 C 25.773438 20.855469 25.632812 20.835938 25.441406 20.851562 C 25.082031 21.191406 24.738281 21.550781 24.410156 21.925781 C 23.703125 22.722656 23.066406 23.59375 22.511719 24.523438 C 22.238281 24.984375 21.984375 25.457031 21.757812 25.9375 C 21.210938 27.082031 20.796875 28.277344 20.515625 29.507812 C 20.6875 29.683594 20.8125 29.902344 20.882812 30.175781 C 20.839844 30.257812 20.867188 30.410156 20.789062 30.453125 C 20.789062 30.457031 20.789062 30.460938 20.789062 30.460938 C 20.789062 30.464844 20.789062 30.46875 20.789062 30.472656 C 20.78125 30.582031 20.910156 30.617188 20.976562 30.6875 C 21.089844 30.808594 21.171875 30.90625 21.300781 30.964844 C 21.324219 30.976562 21.371094 31.007812 21.390625 31.011719 C 21.464844 31.015625 21.644531 31.132812 21.667969 31.148438 C 21.902344 31.296875 22.179688 31.375 22.410156 31.472656 C 22.539062 31.433594 22.636719 31.363281 22.78125 31.335938 C 22.917969 31.390625 23.003906 31.445312 23.058594 31.519531 C 23.078125 31.550781 23.125 31.582031 23.152344 31.613281 C 23.214844 31.691406 23.28125 31.792969 23.335938 31.796875 C 23.410156 31.800781 23.46875 31.867188 23.519531 31.890625 C 23.738281 31.980469 23.832031 32.015625 24.03125 31.9375 C 24.089844 32.046875 24.023438 32.023438 24.078125 32.167969 C 24.171875 32.226562 24.25 32.300781 24.308594 32.398438 C 24.222656 32.488281 24.304688 32.515625 24.308594 32.628906 C 24.566406 32.703125 24.609375 32.878906 24.816406 33 C 24.792969 32.984375 24.84375 32.953125 24.863281 32.953125 C 24.867188 32.953125 24.859375 32.996094 24.863281 33 C 24.875 33.015625 24.9375 32.992188 24.957031 33 C 24.960938 33.003906 24.953125 33.042969 24.957031 33.046875 C 24.96875 33.0625 25.03125 33.035156 25.046875 33.046875 C 25.070312 33.0625 25.066406 33.125 25.09375 33.140625 C 25.175781 33.179688 25.265625 33.148438 25.328125 33.1875 C 25.453125 33.101562 25.335938 33.027344 25.417969 32.953125 C 25.511719 32.863281 25.683594 32.925781 25.789062 32.953125 C 25.765625 33.023438 25.722656 33.070312 25.695312 33.140625 C 25.976562 33.386719 25.851562 34.011719 25.695312 34.203125 C 25.625 34.292969 25.5625 34.371094 25.511719 34.433594 C 25.433594 34.535156 25.285156 34.660156 25.28125 34.757812 C 25.277344 34.835938 25.207031 34.894531 25.1875 34.945312 C 25.164062 35.003906 25.128906 35.035156 25.140625 35.128906 C 25.203125 35.128906 25.183594 35.210938 25.234375 35.222656 C 25.234375 35.300781 25.363281 35.246094 25.371094 35.316406 C 25.28125 35.324219 25.28125 35.429688 25.234375 35.5 C 25.214844 35.527344 25.160156 35.5625 25.140625 35.59375 C 25.101562 35.65625 25.09375 35.683594 25.140625 35.730469 C 25.207031 35.796875 25.121094 35.988281 25.1875 36.007812 C 25.277344 36.089844 25.417969 36.117188 25.464844 36.242188 C 25.664062 36.640625 25.796875 37.113281 26.113281 37.398438 C 26.1875 37.632812 26.308594 37.820312 26.4375 38 C 26.527344 38 26.589844 38.054688 26.667969 38.089844 C 26.714844 38.117188 26.753906 38.109375 26.808594 38.136719 C 26.832031 38.152344 26.871094 38.214844 26.898438 38.230469 C 26.933594 38.25 26.960938 38.257812 26.992188 38.277344 C 27.039062 38.304688 27.046875 38.34375 27.085938 38.371094 C 27.15625 38.421875 27.261719 38.445312 27.316406 38.507812 C 27.34375 38.542969 27.339844 38.613281 27.363281 38.648438 C 27.386719 38.679688 27.425781 38.699219 27.457031 38.738281 C 27.519531 38.828125 27.523438 38.984375 27.546875 39.109375 C 27.605469 39.421875 27.558594 39.570312 27.5 39.851562 C 27.660156 40.035156 27.558594 40.210938 27.546875 40.40625 C 27.539062 40.609375 27.582031 40.71875 27.59375 40.824219 C 27.617188 41.003906 27.628906 41.09375 27.640625 41.191406 C 27.660156 41.332031 27.675781 41.371094 27.6875 41.425781 C 27.765625 41.746094 27.722656 42.199219 27.6875 42.441406 C 27.675781 42.519531 27.695312 42.597656 27.6875 42.675781 C 27.726562 42.757812 27.796875 42.808594 27.824219 42.90625 C 27.664062 43.265625 28.066406 43.425781 28.195312 43.644531 C 28.050781 43.839844 28.328125 43.921875 28.335938 44.109375 C 28.269531 44.136719 28.328125 44.285156 28.242188 44.292969 C 28.222656 44.382812 28.0625 44.332031 28.101562 44.480469 C 28.191406 44.546875 28.34375 44.546875 28.382812 44.664062 C 28.460938 44.777344 28.507812 45.03125 28.566406 45.082031 C 28.582031 45.09375 28.554688 45.15625 28.566406 45.171875 C 28.632812 45.261719 28.78125 45.3125 28.75 45.453125 C 28.839844 45.472656 28.867188 45.550781 28.984375 45.542969 C 28.976562 45.660156 29.054688 45.6875 29.074219 45.773438 C 29.164062 45.785156 29.175781 45.722656 29.261719 45.730469 C 29.339844 45.734375 29.40625 45.832031 29.445312 45.820312 C 29.445312 45.816406 29.53125 45.734375 29.539062 45.730469 C 29.589844 45.6875 29.703125 45.617188 29.722656 45.542969 C 29.414062 45.347656 29.769531 45.011719 29.816406 44.757812 C 29.738281 44.761719 29.796875 44.667969 29.769531 44.617188 C 29.75 44.582031 29.660156 44.558594 29.628906 44.523438 C 29.566406 44.453125 29.460938 44.417969 29.445312 44.292969 C 29.523438 44.203125 29.554688 44.0625 29.675781 44.015625 C 29.578125 43.84375 29.683594 43.753906 29.769531 43.644531 C 29.597656 43.585938 29.46875 43.484375 29.445312 43.277344 C 29.609375 43.28125 29.652344 43.410156 29.816406 43.414062 C 29.871094 43.34375 29.875 43.226562 29.953125 43.183594 C 29.964844 43.046875 29.851562 43.042969 29.863281 42.90625 L 30.277344 42.90625 C 30.34375 42.785156 30.515625 42.820312 30.601562 42.71875 C 30.660156 42.652344 30.585938 42.566406 30.695312 42.535156 C 30.6875 42.328125 30.535156 42.265625 30.511719 42.074219 C 30.445312 42 30.269531 42.035156 30.277344 41.886719 C 30.558594 41.933594 30.660156 42.113281 30.878906 42.074219 C 30.941406 42.0625 30.941406 42.019531 30.972656 41.980469 C 30.984375 41.964844 31.050781 41.996094 31.066406 41.980469 C 31.121094 41.925781 31.203125 41.785156 31.203125 41.75 C 31.207031 41.683594 31.292969 41.671875 31.296875 41.609375 C 31.300781 41.558594 31.332031 41.585938 31.34375 41.5625 C 31.375 41.5 31.351562 41.433594 31.390625 41.378906 C 31.414062 41.339844 31.5 41.324219 31.527344 41.285156 C 31.566406 41.238281 31.53125 41.144531 31.621094 41.148438 C 31.574219 40.761719 31.847656 40.691406 31.851562 40.359375 C 31.816406 40.273438 31.773438 40.191406 31.761719 40.082031 C 31.894531 39.941406 32.015625 39.78125 32.269531 39.757812 C 32.285156 39.699219 32.363281 39.695312 32.40625 39.664062 C 32.449219 39.636719 32.453125 39.546875 32.546875 39.574219 C 32.660156 39.554688 32.648438 39.65625 32.777344 39.621094 C 32.925781 39.523438 33.046875 39.429688 33.101562 39.296875 C 33.140625 39.199219 33.171875 39.101562 33.195312 39.0625 C 33.253906 38.972656 33.265625 38.871094 33.289062 38.785156 C 33.40625 38.347656 33.449219 37.910156 33.378906 37.488281 C 33.445312 37.417969 33.496094 37.328125 33.609375 37.304688 C 33.605469 37.191406 33.6875 37.136719 33.703125 37.121094 C 33.71875 37.109375 33.695312 37.042969 33.703125 37.027344 C 33.707031 37.019531 33.746094 37.03125 33.75 37.027344 C 33.765625 37.015625 33.738281 36.953125 33.75 36.933594 C 33.761719 36.917969 33.828125 36.90625 33.84375 36.886719 C 33.875 36.855469 33.855469 36.789062 33.890625 36.75 C 33.988281 36.632812 34.042969 36.640625 34.074219 36.519531 C 34.09375 36.441406 34.195312 36.175781 34.167969 36.148438 " fill-opacity="1" fill-rule="nonzero"/><path fill="#ffffff" d="M 50.503906 27.03125 C 50.417969 27.035156 50.351562 27.058594 50.320312 27.121094 C 50.277344 27.113281 50.238281 27.101562 50.199219 27.085938 C 50.101562 27.050781 50.019531 27 49.949219 26.9375 C 49.800781 26.917969 49.707031 26.839844 49.625 26.753906 C 49.601562 26.574219 49.742188 26.5625 49.765625 26.429688 C 49.722656 26.132812 49.542969 25.972656 49.347656 25.828125 C 49.355469 25.742188 49.292969 25.730469 49.300781 25.640625 C 49.296875 25.507812 49.105469 25.5625 49.117188 25.410156 C 49.214844 25.292969 49.4375 25.078125 49.625 24.992188 C 49.679688 24.96875 49.746094 24.945312 49.8125 24.945312 C 50.003906 24.957031 50.078125 25.074219 50.226562 25.222656 C 50.160156 25.308594 50.097656 25.207031 49.996094 25.222656 C 49.839844 25.253906 49.773438 25.375 49.71875 25.503906 C 49.789062 25.664062 49.886719 25.796875 50.089844 25.828125 C 50.136719 25.886719 50.214844 25.917969 50.226562 26.011719 C 50.265625 25.972656 50.355469 25.984375 50.367188 25.917969 C 50.488281 25.949219 50.464844 26.128906 50.597656 26.152344 C 50.523438 26.316406 50.375 26.144531 50.273438 26.242188 C 50.371094 26.46875 50.542969 26.621094 50.550781 26.9375 C 50.515625 26.9375 50.515625 26.972656 50.511719 27.003906 C 50.507812 27.011719 50.507812 27.019531 50.503906 27.03125 Z M 46.757812 25.917969 C 46.652344 25.96875 46.550781 26.023438 46.476562 26.105469 C 46.230469 26.066406 46.035156 26.117188 45.832031 25.964844 C 45.921875 25.875 45.875 25.714844 45.921875 25.59375 C 45.929688 25.574219 45.96875 25.597656 45.96875 25.546875 C 45.96875 25.527344 46.003906 25.480469 46.015625 25.457031 C 46.03125 25.425781 46.039062 25.355469 46.0625 25.316406 C 46.085938 25.277344 46.175781 25.261719 46.199219 25.222656 C 46.230469 25.183594 46.207031 25.117188 46.246094 25.085938 C 46.28125 25.058594 46.351562 25.054688 46.386719 25.039062 C 46.425781 25.023438 46.457031 24.984375 46.523438 24.992188 C 46.511719 25.113281 46.589844 25.144531 46.710938 25.132812 C 46.527344 25.269531 46.746094 25.351562 46.847656 25.457031 C 47.019531 25.425781 47.121094 25.324219 47.265625 25.269531 C 47.265625 25.132812 47.046875 25.210938 46.988281 25.132812 C 47.054688 25.046875 47.179688 25.027344 47.265625 24.992188 C 47.375 24.949219 47.445312 24.871094 47.589844 24.902344 C 47.445312 25.03125 47.582031 25.191406 47.402344 25.316406 C 47.417969 25.410156 47.523438 25.414062 47.589844 25.457031 C 47.617188 25.472656 47.65625 25.535156 47.683594 25.546875 C 47.699219 25.558594 47.761719 25.535156 47.773438 25.546875 C 47.796875 25.578125 47.902344 25.683594 47.960938 25.6875 C 48.042969 25.691406 48.058594 25.785156 48.191406 25.78125 C 48.1875 25.847656 48.183594 25.910156 48.238281 25.917969 C 48.273438 26.0625 48.109375 26.007812 48.144531 26.152344 C 47.574219 26.324219 47.34375 25.871094 46.757812 25.917969 Z M 42.914062 23.28125 C 42.917969 23.28125 42.96875 23.371094 42.960938 23.375 C 43.054688 23.359375 43.109375 23.285156 43.144531 23.140625 C 43.238281 23.144531 43.203125 23.269531 43.332031 23.234375 C 43.574219 23.125 43.785156 22.976562 43.792969 22.632812 C 43.953125 22.59375 44.066406 22.503906 44.117188 22.355469 C 44.109375 22.257812 43.996094 22.265625 43.933594 22.214844 C 43.875 22.167969 43.84375 22.144531 43.792969 22.078125 C 43.78125 21.941406 43.898438 21.933594 43.886719 21.800781 C 44 21.804688 44.03125 21.726562 44.117188 21.707031 C 44.324219 21.574219 44.441406 21.351562 44.628906 21.199219 C 44.6875 21.214844 44.699219 21.28125 44.765625 21.289062 C 44.753906 21.480469 44.652344 21.550781 44.582031 21.660156 C 44.496094 21.789062 44.300781 21.929688 44.441406 22.125 C 44.488281 22.191406 44.53125 22.210938 44.628906 22.261719 C 44.621094 22.261719 44.953125 22.464844 45.042969 22.355469 C 45.082031 22.308594 45.105469 22.324219 45.183594 22.308594 C 45.273438 22.289062 45.46875 22.25 45.644531 22.308594 C 45.578125 22.375 45.5 22.433594 45.414062 22.449219 C 45.265625 22.472656 45.140625 22.375 44.996094 22.402344 C 44.925781 22.414062 44.914062 22.425781 44.859375 22.449219 C 44.824219 22.460938 44.628906 22.484375 44.582031 22.539062 C 44.558594 22.570312 44.59375 22.644531 44.535156 22.632812 C 44.53125 22.757812 44.765625 22.757812 44.765625 22.632812 C 44.882812 22.636719 44.945312 22.699219 44.949219 22.816406 C 44.820312 22.941406 44.761719 22.734375 44.582031 22.773438 C 44.402344 22.839844 44.445312 23.054688 44.488281 23.234375 C 44.410156 23.308594 44.28125 23.335938 44.210938 23.417969 C 44.09375 23.425781 44.066406 23.347656 43.980469 23.328125 C 43.816406 23.382812 43.621094 23.398438 43.515625 23.511719 C 43.398438 23.492188 43.304688 23.449219 43.238281 23.375 C 43.097656 23.378906 42.832031 23.597656 42.820312 23.328125 C 42.855469 23.328125 42.871094 23.269531 42.914062 23.28125 Z M 54.667969 30.585938 C 54.667969 30.582031 54.664062 30.578125 54.664062 30.578125 C 54.40625 29.089844 53.953125 27.636719 53.316406 26.253906 C 52.691406 24.890625 51.890625 23.597656 50.925781 22.417969 C 50.855469 22.332031 50.789062 22.246094 50.71875 22.164062 C 50.292969 21.664062 49.84375 21.1875 49.371094 20.738281 C 49.222656 20.769531 49.121094 20.746094 49.023438 20.78125 C 48.882812 20.71875 48.800781 20.683594 48.699219 20.6875 C 48.65625 20.691406 48.664062 20.730469 48.652344 20.734375 C 48.597656 20.75 48.523438 20.714844 48.46875 20.734375 C 48.449219 20.742188 48.398438 20.8125 48.375 20.828125 C 48.351562 20.839844 48.308594 20.816406 48.285156 20.828125 C 48.265625 20.835938 48.257812 20.910156 48.238281 20.921875 C 48.121094 20.980469 48.015625 20.972656 47.914062 21.011719 C 47.902344 20.976562 47.875 20.960938 47.820312 20.96875 C 47.816406 20.914062 47.886719 20.894531 47.820312 20.875 C 47.816406 20.757812 47.664062 20.78125 47.542969 20.78125 C 47.425781 20.898438 47.597656 20.964844 47.589844 21.105469 C 47.394531 21.09375 47.289062 21.175781 47.125 21.199219 C 47.125 21.246094 47.089844 21.253906 47.082031 21.289062 C 47.074219 21.34375 47.148438 21.363281 47.082031 21.382812 C 46.953125 21.496094 46.84375 21.3125 46.664062 21.335938 C 46.527344 21.476562 46.804688 21.464844 46.847656 21.566406 C 46.613281 21.664062 46.550781 21.519531 46.339844 21.476562 C 46.296875 21.382812 46.246094 21.292969 46.199219 21.199219 C 46.132812 21.144531 46.011719 21.140625 45.96875 21.058594 C 46.3125 21.019531 46.679688 21.277344 46.988281 21.199219 C 47 21.195312 47.0625 21.117188 47.082031 21.105469 C 47.136719 21.070312 47.214844 21.097656 47.21875 21.011719 C 47.160156 21.023438 47.195312 20.949219 47.171875 20.921875 C 47.136719 20.875 47 20.832031 46.988281 20.828125 C 46.929688 20.8125 46.890625 20.792969 46.847656 20.78125 C 46.789062 20.765625 46.75 20.746094 46.710938 20.734375 C 46.648438 20.71875 46.613281 20.699219 46.570312 20.6875 C 46.511719 20.675781 46.472656 20.652344 46.433594 20.640625 C 46.238281 20.59375 46.132812 20.582031 45.96875 20.640625 C 45.746094 20.492188 45.46875 20.351562 45.183594 20.320312 C 45.121094 20.3125 45.023438 20.363281 44.949219 20.363281 C 44.835938 20.363281 44.769531 20.308594 44.675781 20.320312 C 44.40625 20.347656 44.210938 20.484375 44.027344 20.550781 C 43.957031 20.574219 43.871094 20.570312 43.792969 20.597656 C 43.707031 20.625 43.652344 20.695312 43.5625 20.6875 C 43.542969 20.777344 43.460938 20.804688 43.46875 20.921875 C 43.289062 20.925781 43.289062 21.109375 43.144531 21.152344 C 43.101562 21.246094 43.050781 21.335938 43.007812 21.429688 C 42.8125 21.445312 42.6875 21.699219 42.542969 21.707031 C 42.492188 21.710938 42.523438 21.742188 42.496094 21.753906 C 42.390625 21.808594 42.316406 21.765625 42.265625 21.800781 C 42.214844 21.832031 42.179688 21.859375 42.128906 21.890625 C 42.027344 21.957031 42.007812 22.015625 41.941406 22.078125 C 42.035156 22.269531 41.972656 22.332031 42.035156 22.539062 C 42.167969 22.625 42.253906 22.722656 42.40625 22.726562 C 42.574219 22.726562 42.667969 22.558594 42.820312 22.539062 C 42.910156 22.683594 43.03125 22.796875 43.054688 23.003906 C 42.90625 23.085938 42.851562 23.125 42.730469 23.140625 C 42.746094 23.03125 42.800781 22.96875 42.777344 22.816406 C 42.6875 22.742188 42.636719 22.832031 42.589844 22.863281 C 42.492188 22.925781 42.46875 22.988281 42.40625 23.050781 C 42.40625 23.234375 42.496094 23.328125 42.496094 23.511719 C 42.292969 23.609375 42.210938 23.554688 41.988281 23.605469 C 41.972656 23.710938 41.878906 23.765625 41.804688 23.835938 C 41.679688 23.953125 41.566406 24.074219 41.386719 24.066406 C 41.285156 24.257812 41.089844 24.503906 40.832031 24.390625 C 40.792969 24.507812 40.640625 24.507812 40.554688 24.578125 C 40.453125 24.476562 40.296875 24.554688 40.230469 24.621094 C 40.28125 24.867188 40.585938 24.773438 40.691406 24.992188 C 40.769531 25.152344 40.734375 25.238281 40.691406 25.410156 C 40.679688 25.464844 40.695312 25.570312 40.632812 25.621094 C 40.625 25.628906 40.613281 25.636719 40.601562 25.640625 C 40.53125 25.648438 40.464844 25.652344 40.398438 25.648438 C 40.085938 25.640625 39.855469 25.546875 39.535156 25.546875 C 39.523438 25.613281 39.433594 25.601562 39.398438 25.640625 C 39.386719 25.675781 39.394531 25.730469 39.351562 25.734375 C 39.46875 26.003906 39.273438 26.292969 39.257812 26.566406 C 39.253906 26.65625 39.296875 26.699219 39.304688 26.753906 C 39.3125 26.8125 39.242188 26.890625 39.304688 26.9375 C 39.363281 27 39.523438 27 39.582031 26.9375 C 39.628906 27.058594 39.796875 27.0625 39.859375 27.167969 C 39.972656 27.160156 40.019531 27.09375 40.136719 27.074219 C 40.320312 27.050781 40.410156 27.089844 40.460938 27.03125 C 40.472656 27.015625 40.535156 27.039062 40.554688 27.03125 C 40.558594 27.027344 40.550781 26.988281 40.554688 26.984375 C 40.566406 26.96875 40.628906 26.996094 40.648438 26.984375 C 40.765625 26.902344 40.789062 26.746094 40.925781 26.707031 C 40.882812 26.199219 41.3125 26.167969 41.574219 25.964844 C 41.574219 25.960938 41.574219 25.957031 41.574219 25.953125 C 41.578125 25.890625 41.542969 25.863281 41.515625 25.835938 C 41.488281 25.8125 41.46875 25.789062 41.527344 25.734375 C 41.683594 25.644531 41.839844 25.730469 41.988281 25.734375 C 42.054688 25.734375 42.085938 25.6875 42.128906 25.6875 C 42.191406 25.6875 42.214844 25.765625 42.3125 25.734375 C 42.347656 25.703125 42.367188 25.660156 42.386719 25.613281 C 42.417969 25.539062 42.449219 25.46875 42.542969 25.457031 C 42.6875 25.496094 42.746094 25.625 42.777344 25.78125 C 42.828125 25.804688 42.867188 25.84375 42.914062 25.875 C 42.941406 25.890625 42.972656 25.910156 43.007812 25.917969 C 43 25.941406 43 25.960938 43 25.976562 C 43 26.066406 43.082031 26.074219 43.097656 26.152344 C 43.394531 26.070312 43.625 26.292969 43.746094 26.519531 C 43.707031 26.574219 43.6875 26.644531 43.703125 26.753906 C 43.824219 26.867188 43.855469 26.636719 43.980469 26.613281 C 44.039062 26.472656 43.820312 26.378906 43.933594 26.335938 C 44.070312 26.324219 44.214844 26.464844 44.257812 26.289062 C 44.171875 26.238281 44.09375 26.175781 44.070312 26.152344 C 44.058594 26.136719 43.996094 26.160156 43.980469 26.152344 C 43.953125 26.136719 43.917969 26.074219 43.886719 26.058594 C 43.820312 26.019531 43.722656 26.011719 43.65625 25.964844 C 43.640625 25.957031 43.636719 25.929688 43.625 25.902344 C 43.621094 25.890625 43.617188 25.878906 43.609375 25.871094 C 43.566406 25.839844 43.507812 25.859375 43.46875 25.828125 C 43.46875 25.824219 43.464844 25.820312 43.460938 25.820312 C 43.417969 25.769531 43.421875 25.695312 43.378906 25.640625 C 43.277344 25.523438 43.097656 25.472656 43.054688 25.316406 C 43.121094 25.292969 43.167969 25.25 43.238281 25.222656 C 43.394531 25.265625 43.242188 25.328125 43.332031 25.410156 C 43.585938 25.445312 43.738281 25.585938 43.871094 25.742188 C 43.898438 25.769531 43.921875 25.804688 43.949219 25.835938 C 43.957031 25.847656 43.96875 25.859375 43.980469 25.871094 C 44.210938 25.839844 44.257812 25.996094 44.347656 26.105469 C 44.308594 26.316406 44.425781 26.367188 44.441406 26.519531 C 44.480469 26.535156 44.523438 26.554688 44.5625 26.578125 C 44.578125 26.585938 44.59375 26.597656 44.605469 26.605469 C 44.640625 26.628906 44.664062 26.648438 44.675781 26.660156 C 44.6875 26.675781 44.707031 26.675781 44.734375 26.675781 C 44.816406 26.667969 44.9375 26.609375 44.90625 26.707031 C 44.847656 26.703125 44.789062 26.699219 44.746094 26.710938 C 44.707031 26.722656 44.675781 26.746094 44.675781 26.796875 C 44.742188 26.859375 44.78125 26.949219 44.839844 27.023438 C 44.878906 27.070312 44.925781 27.109375 44.996094 27.121094 C 45.078125 27.03125 45.101562 26.886719 45.183594 26.796875 C 45.097656 26.753906 45.125 26.636719 45.089844 26.566406 C 45.082031 26.550781 45.011719 26.539062 44.996094 26.519531 C 44.96875 26.480469 45 26.402344 44.949219 26.382812 C 45.011719 26.324219 45.121094 26.324219 45.183594 26.382812 C 45.21875 26.28125 45.277344 26.195312 45.414062 26.195312 C 45.527344 26.1875 45.558594 26.269531 45.644531 26.289062 C 45.636719 26.1875 45.808594 26.269531 45.875 26.242188 C 45.84375 26.167969 46.09375 26.167969 46.0625 26.242188 C 45.910156 26.394531 45.710938 26.226562 45.554688 26.382812 C 45.519531 26.554688 45.730469 26.484375 45.738281 26.613281 C 45.699219 26.808594 45.828125 26.832031 45.832031 26.984375 C 45.933594 26.984375 45.976562 27.105469 46.015625 27.121094 C 46.078125 27.148438 46.191406 27.09375 46.199219 27.167969 C 46.34375 27.171875 46.332031 27.023438 46.523438 27.074219 C 46.660156 27.097656 46.667969 27.238281 46.847656 27.214844 C 47.042969 27.195312 47.097656 27.03125 47.359375 27.074219 C 47.386719 27.160156 47.316406 27.21875 47.3125 27.261719 C 47.292969 27.4375 47.375 27.441406 47.3125 27.492188 C 47.277344 27.523438 47.273438 27.699219 47.265625 27.722656 C 47.25 27.789062 47.238281 27.835938 47.226562 27.878906 C 47.199219 27.984375 47.179688 28.027344 47.125 28.09375 C 47.101562 28.125 47.054688 28.152344 47.035156 28.1875 C 46.863281 28.28125 46.742188 28.171875 46.570312 28.140625 C 46.464844 28.175781 46.335938 28.183594 46.246094 28.234375 C 46.199219 28.214844 46.140625 28.199219 46.074219 28.1875 C 45.972656 28.164062 45.855469 28.148438 45.75 28.132812 C 45.605469 28.109375 45.476562 28.085938 45.414062 28.046875 C 45.308594 27.980469 45.207031 27.921875 45.09375 27.878906 C 45.054688 27.863281 45.011719 27.851562 44.972656 27.839844 C 44.972656 27.839844 44.96875 27.839844 44.96875 27.839844 C 44.878906 27.816406 44.78125 27.808594 44.675781 27.816406 C 44.585938 27.929688 44.484375 28.0625 44.582031 28.234375 C 44.488281 28.246094 44.488281 28.359375 44.394531 28.371094 C 44.222656 28.28125 44.054688 28.1875 43.792969 28.1875 C 43.785156 28.070312 43.730469 28.046875 43.703125 28 C 43.648438 27.917969 43.589844 27.882812 43.515625 27.863281 C 43.363281 27.820312 43.203125 27.800781 43.082031 27.765625 C 43.011719 27.746094 42.953125 27.71875 42.914062 27.679688 C 42.875 27.636719 42.859375 27.582031 42.820312 27.539062 C 42.859375 27.453125 42.898438 27.371094 42.914062 27.261719 C 42.773438 27.28125 42.855469 27.09375 42.867188 27.121094 C 42.859375 27.09375 42.855469 27.074219 42.851562 27.058594 L 42.847656 27.046875 C 42.835938 27.011719 42.820312 26.984375 42.777344 26.9375 C 42.738281 26.925781 42.683594 26.9375 42.683594 26.890625 C 42.378906 27 42.152344 27.074219 41.757812 27.03125 C 41.679688 27.019531 41.605469 26.976562 41.527344 26.984375 C 41.378906 26.992188 41.050781 27.101562 41.015625 27.121094 C 40.953125 27.164062 40.871094 27.210938 40.832031 27.214844 C 40.78125 27.21875 40.808594 27.246094 40.785156 27.261719 C 40.554688 27.386719 40.390625 27.425781 40.136719 27.355469 C 40.039062 27.3125 40 27.214844 39.859375 27.214844 C 39.785156 27.339844 39.6875 27.441406 39.628906 27.585938 C 39.617188 27.589844 39.605469 27.59375 39.597656 27.597656 C 39.558594 27.613281 39.527344 27.628906 39.492188 27.644531 C 39.351562 27.71875 39.230469 27.808594 39.148438 27.9375 C 39.128906 27.96875 39.109375 28 39.097656 28.035156 C 39.046875 28.152344 39.019531 28.292969 39.027344 28.464844 C 38.917969 28.53125 38.859375 28.617188 38.75 28.695312 C 38.648438 28.765625 38.511719 28.800781 38.425781 28.882812 C 38.355469 28.945312 38.304688 29.066406 38.238281 29.160156 C 38.226562 29.175781 38.210938 29.179688 38.195312 29.207031 C 38.160156 29.257812 38.144531 29.261719 38.101562 29.296875 C 38.085938 29.308594 38.109375 29.375 38.101562 29.390625 C 38.097656 29.394531 38.058594 29.386719 38.054688 29.390625 C 38.039062 29.402344 38.019531 29.511719 38.007812 29.53125 C 37.988281 29.558594 37.976562 29.589844 37.960938 29.621094 C 37.898438 29.742188 37.847656 29.796875 37.777344 29.851562 C 37.761719 29.867188 37.789062 29.929688 37.777344 29.945312 C 37.761719 29.96875 37.703125 29.96875 37.683594 29.992188 C 37.636719 30.054688 37.671875 30.265625 37.59375 30.269531 C 37.675781 30.503906 37.78125 30.730469 37.777344 30.964844 C 37.773438 31.046875 37.746094 31.074219 37.730469 31.148438 C 37.722656 31.179688 37.683594 31.191406 37.683594 31.195312 C 37.671875 31.234375 37.742188 31.261719 37.730469 31.289062 C 37.71875 31.316406 37.621094 31.386719 37.59375 31.425781 C 37.550781 31.484375 37.488281 31.53125 37.5 31.613281 C 37.574219 31.675781 37.617188 31.773438 37.636719 31.890625 C 37.636719 31.980469 37.511719 31.949219 37.546875 32.074219 C 37.664062 32.171875 37.722656 32.332031 37.914062 32.351562 C 37.96875 32.578125 38.160156 32.660156 38.238281 32.863281 C 38.261719 32.917969 38.25 33.003906 38.28125 33.082031 C 38.28125 33.085938 38.285156 33.089844 38.285156 33.09375 C 38.464844 33.230469 38.632812 33.421875 38.792969 33.554688 C 38.921875 33.660156 38.964844 33.710938 39.058594 33.738281 C 39.0625 33.738281 39.066406 33.738281 39.074219 33.742188 C 39.257812 33.789062 39.390625 33.835938 39.535156 33.789062 C 39.730469 33.71875 39.890625 33.675781 40.089844 33.648438 C 40.179688 33.6875 40.261719 33.726562 40.367188 33.742188 C 40.5625 33.648438 40.757812 33.621094 40.925781 33.554688 C 40.953125 33.546875 40.96875 33.480469 41.015625 33.464844 C 41.007812 33.46875 41.03125 33.515625 41.0625 33.507812 C 41.070312 33.507812 41.078125 33.496094 41.085938 33.484375 C 41.09375 33.464844 41.105469 33.441406 41.121094 33.425781 C 41.132812 33.417969 41.140625 33.414062 41.15625 33.417969 C 41.175781 33.421875 41.148438 33.476562 41.199219 33.464844 C 41.191406 33.464844 41.242188 33.417969 41.25 33.417969 C 41.328125 33.367188 41.316406 33.421875 41.386719 33.417969 C 41.410156 33.414062 41.410156 33.359375 41.480469 33.371094 C 41.566406 33.386719 41.75 33.503906 41.804688 33.554688 C 41.867188 33.617188 41.832031 33.773438 41.894531 33.835938 C 42.074219 33.859375 42.121094 33.75 42.3125 33.789062 C 42.671875 33.921875 42.691406 34.148438 42.636719 34.480469 C 42.632812 34.515625 42.621094 34.546875 42.613281 34.578125 C 42.605469 34.605469 42.59375 34.628906 42.585938 34.652344 C 42.539062 34.773438 42.484375 34.886719 42.496094 34.992188 C 42.503906 35.035156 42.527344 35.050781 42.542969 35.082031 C 42.632812 35.253906 42.707031 35.292969 42.820312 35.40625 C 43.023438 35.605469 43.109375 35.828125 43.144531 36.148438 C 43.226562 36.222656 43.28125 36.320312 43.332031 36.425781 C 43.207031 36.675781 43.386719 36.894531 43.421875 37.121094 C 43.390625 37.164062 43.40625 37.207031 43.378906 37.257812 C 43.363281 37.285156 43.300781 37.320312 43.285156 37.351562 C 43.257812 37.402344 43.261719 37.449219 43.238281 37.488281 C 43.21875 37.523438 43.15625 37.558594 43.144531 37.582031 C 43.113281 37.664062 43.132812 37.789062 43.097656 37.90625 C 43.070312 38.011719 43.007812 38.09375 43.007812 38.183594 C 43.003906 38.328125 43.066406 38.546875 43.097656 38.601562 C 43.140625 38.664062 43.191406 38.746094 43.191406 38.785156 C 43.195312 38.839844 43.226562 38.808594 43.238281 38.832031 C 43.300781 38.949219 43.398438 39.136719 43.421875 39.203125 C 43.460938 39.292969 43.496094 39.414062 43.515625 39.480469 C 43.550781 39.605469 43.589844 39.769531 43.609375 39.898438 C 43.644531 40.132812 43.605469 40.363281 43.65625 40.5 C 43.660156 40.511719 43.734375 40.574219 43.746094 40.589844 C 43.816406 40.675781 43.839844 40.757812 43.886719 40.824219 C 43.910156 40.855469 43.980469 40.859375 43.980469 40.914062 C 44.027344 41.144531 44.191406 41.257812 44.257812 41.472656 C 44.203125 41.527344 44.203125 41.632812 44.210938 41.75 C 44.277344 41.761719 44.261719 41.851562 44.304688 41.886719 C 44.363281 41.933594 44.441406 41.964844 44.488281 42.027344 C 44.835938 41.960938 45.167969 41.8125 45.507812 41.980469 C 45.609375 41.863281 45.757812 41.847656 45.875 41.792969 C 45.890625 41.789062 45.90625 41.714844 45.921875 41.703125 C 45.980469 41.660156 46.0625 41.648438 46.109375 41.609375 C 46.3125 41.433594 46.425781 41.152344 46.664062 41.007812 C 46.683594 40.917969 46.761719 40.890625 46.757812 40.777344 C 46.851562 40.71875 46.9375 40.648438 47.035156 40.589844 C 46.984375 40.402344 46.921875 40.332031 46.988281 40.128906 C 47.230469 39.960938 47.582031 39.871094 47.589844 39.527344 C 47.59375 39.359375 47.429688 39.273438 47.402344 39.0625 C 47.472656 38.898438 47.589844 38.789062 47.726562 38.695312 C 47.78125 38.625 47.785156 38.503906 47.867188 38.460938 C 47.972656 38.410156 48.074219 38.359375 48.144531 38.324219 C 48.269531 38.257812 48.300781 38.210938 48.375 38.136719 C 48.414062 38.101562 48.488281 38.085938 48.515625 38.046875 C 48.550781 37.992188 48.535156 37.917969 48.5625 37.859375 C 48.5625 37.855469 48.601562 37.863281 48.609375 37.859375 C 48.621094 37.851562 48.601562 37.785156 48.609375 37.769531 C 48.609375 37.761719 48.648438 37.773438 48.652344 37.769531 C 48.699219 37.730469 48.609375 37.628906 48.609375 37.628906 C 48.589844 37.589844 48.617188 37.53125 48.609375 37.488281 C 48.566406 37.300781 48.535156 37.1875 48.609375 37.027344 C 48.511719 36.808594 48.378906 36.617188 48.328125 36.425781 C 48.3125 36.351562 48.339844 36.269531 48.328125 36.195312 C 48.332031 36.195312 48.289062 36.171875 48.285156 36.148438 C 48.273438 36.113281 48.28125 36.046875 48.285156 36.007812 C 48.289062 35.871094 48.382812 35.625 48.421875 35.59375 C 48.4375 35.582031 48.414062 35.515625 48.421875 35.5 C 48.441406 35.464844 48.535156 35.441406 48.5625 35.40625 C 48.566406 35.402344 48.5625 35.371094 48.5625 35.359375 C 48.5625 35.308594 48.589844 35.339844 48.609375 35.316406 C 48.699219 35.171875 48.835938 35.105469 48.929688 34.992188 C 48.980469 34.933594 48.980469 34.867188 49.023438 34.804688 C 49.039062 34.785156 49.101562 34.78125 49.117188 34.757812 C 49.148438 34.714844 49.128906 34.65625 49.164062 34.621094 C 49.203125 34.578125 49.289062 34.53125 49.347656 34.480469 C 49.421875 34.421875 49.535156 34.296875 49.578125 34.296875 C 49.632812 34.292969 49.601562 34.265625 49.625 34.25 C 49.714844 34.191406 49.796875 34.160156 49.859375 34.113281 C 49.953125 34.035156 49.953125 33.929688 49.996094 33.835938 C 50 33.828125 50.039062 33.839844 50.042969 33.835938 C 50.054688 33.824219 50.035156 33.757812 50.042969 33.742188 C 50.042969 33.734375 50.082031 33.746094 50.089844 33.742188 C 50.101562 33.730469 50.078125 33.664062 50.089844 33.648438 C 50.089844 33.644531 50.128906 33.652344 50.136719 33.648438 C 50.148438 33.636719 50.128906 33.574219 50.136719 33.554688 C 50.136719 33.550781 50.175781 33.5625 50.179688 33.554688 C 50.195312 33.542969 50.171875 33.480469 50.179688 33.464844 C 50.203125 33.429688 50.269531 33.429688 50.273438 33.371094 C 50.277344 33.320312 50.308594 33.347656 50.320312 33.324219 C 50.355469 33.261719 50.335938 33.203125 50.367188 33.140625 C 50.367188 33.132812 50.40625 33.144531 50.414062 33.140625 C 50.425781 33.128906 50.40625 33.0625 50.414062 33.046875 C 50.414062 33.042969 50.453125 33.050781 50.460938 33.046875 C 50.472656 33.035156 50.449219 32.972656 50.460938 32.953125 C 50.460938 32.949219 50.5 32.957031 50.503906 32.953125 C 50.519531 32.945312 50.496094 32.878906 50.503906 32.863281 C 50.507812 32.855469 50.546875 32.867188 50.550781 32.863281 C 50.566406 32.851562 50.542969 32.785156 50.550781 32.769531 C 50.554688 32.761719 50.59375 32.773438 50.597656 32.769531 C 50.617188 32.753906 50.644531 32.613281 50.644531 32.585938 C 50.648438 32.492188 50.613281 32.453125 50.597656 32.398438 C 50.582031 32.347656 50.625 32.222656 50.503906 32.214844 C 50.4375 32.289062 50.292969 32.351562 50.136719 32.398438 C 50.023438 32.429688 49.859375 32.410156 49.71875 32.445312 C 49.710938 32.449219 49.707031 32.484375 49.671875 32.492188 C 49.613281 32.507812 49.574219 32.527344 49.53125 32.539062 C 49.507812 32.542969 49.464844 32.539062 49.441406 32.539062 C 49.355469 32.527344 49.261719 32.449219 49.210938 32.398438 C 49.222656 32.335938 49.273438 32.308594 49.253906 32.214844 C 49.171875 32.175781 49.113281 32.113281 49.058594 32.042969 C 49.058594 32.039062 49.058594 32.039062 49.054688 32.039062 C 48.984375 31.941406 48.925781 31.828125 48.839844 31.75 C 48.800781 31.714844 48.75 31.734375 48.699219 31.703125 C 48.6875 31.695312 48.664062 31.625 48.652344 31.613281 C 48.640625 31.597656 48.578125 31.625 48.5625 31.613281 C 48.523438 31.585938 48.507812 31.503906 48.46875 31.472656 C 48.421875 31.433594 48.324219 31.46875 48.328125 31.378906 C 48.292969 30.984375 47.976562 30.871094 47.867188 30.546875 L 47.867188 30.222656 C 47.773438 30.125 47.59375 29.953125 47.589844 29.851562 C 47.585938 29.800781 47.554688 29.828125 47.542969 29.808594 C 47.484375 29.675781 47.484375 29.582031 47.449219 29.53125 C 47.417969 29.476562 47.402344 29.472656 47.359375 29.4375 C 47.34375 29.425781 47.367188 29.359375 47.359375 29.34375 C 47.355469 29.339844 47.316406 29.347656 47.3125 29.34375 C 47.296875 29.332031 47.273438 29.222656 47.265625 29.207031 C 47.230469 29.152344 47.21875 29.148438 47.171875 29.113281 C 47.105469 29.058594 47.183594 28.933594 47.082031 28.925781 C 47.042969 28.925781 46.941406 28.761719 46.941406 28.742188 C 46.9375 28.640625 46.808594 28.679688 46.847656 28.558594 C 47.011719 28.640625 47.042969 28.859375 47.21875 28.925781 C 47.308594 28.894531 47.207031 28.667969 47.3125 28.648438 C 47.363281 29.15625 47.773438 29.296875 47.914062 29.714844 C 48.011719 29.769531 48.085938 29.847656 48.144531 29.945312 C 48.179688 30.105469 48.234375 30.320312 48.285156 30.363281 C 48.296875 30.375 48.273438 30.4375 48.285156 30.453125 C 48.3125 30.496094 48.402344 30.5 48.375 30.59375 C 48.445312 30.664062 48.570312 30.675781 48.609375 30.777344 C 48.667969 30.980469 48.820312 31.089844 48.929688 31.242188 C 49 31.511719 49.046875 31.796875 49.171875 32.007812 C 49.171875 32.007812 49.175781 32.011719 49.175781 32.011719 C 49.199219 32.050781 49.226562 32.085938 49.253906 32.121094 C 49.371094 32.074219 49.503906 32.117188 49.625 32.074219 C 49.628906 32.074219 49.621094 32.03125 49.625 32.027344 C 49.636719 32.011719 49.703125 32.039062 49.71875 32.027344 C 49.753906 32.003906 49.765625 31.960938 49.8125 31.9375 C 49.921875 31.871094 50.007812 31.835938 50.042969 31.796875 C 50.050781 31.785156 50.117188 31.804688 50.136719 31.796875 C 50.175781 31.78125 50.210938 31.761719 50.242188 31.738281 C 50.246094 31.734375 50.25 31.730469 50.253906 31.726562 C 50.261719 31.71875 50.269531 31.710938 50.273438 31.703125 C 50.28125 31.695312 50.308594 31.703125 50.335938 31.703125 C 50.347656 31.707031 50.359375 31.707031 50.367188 31.703125 C 50.386719 31.699219 50.402344 31.691406 50.414062 31.683594 L 50.417969 31.683594 C 50.488281 31.648438 50.511719 31.613281 50.550781 31.566406 C 50.566406 31.550781 50.628906 31.578125 50.644531 31.566406 C 50.746094 31.480469 50.765625 31.335938 50.875 31.289062 C 50.976562 31.234375 51.0625 31.167969 51.246094 31.195312 C 51.484375 30.972656 51.75 30.773438 51.847656 30.410156 C 51.953125 30.316406 52.09375 30.253906 52.125 30.085938 C 52.054688 29.910156 51.828125 29.890625 51.753906 29.714844 C 51.636719 29.695312 51.542969 29.648438 51.476562 29.574219 C 51.378906 29.4375 51.542969 29.277344 51.339844 29.207031 C 51.222656 29.445312 50.875 29.839844 50.550781 29.574219 C 50.570312 29.488281 50.683594 29.492188 50.644531 29.34375 C 50.523438 29.28125 50.429688 29.1875 50.367188 29.066406 C 50.21875 29.027344 50.222656 29.140625 50.136719 29.160156 C 50.15625 28.980469 49.972656 28.953125 49.902344 28.835938 C 49.832031 28.707031 49.835938 28.683594 49.859375 28.601562 C 49.894531 28.460938 49.699219 28.488281 49.8125 28.417969 C 49.914062 28.46875 49.945312 28.402344 49.996094 28.464844 C 50.027344 28.5 50.140625 28.480469 50.179688 28.511719 C 50.1875 28.675781 50.3125 28.71875 50.320312 28.882812 C 50.558594 28.984375 50.75 29.128906 51.015625 29.207031 C 51.179688 29.21875 51.238281 29.121094 51.386719 29.113281 C 51.523438 29.175781 51.578125 29.320312 51.664062 29.4375 C 51.929688 29.457031 52.25 29.617188 52.449219 29.4375 C 52.457031 29.511719 52.5625 29.472656 52.632812 29.484375 C 52.722656 29.5 52.816406 29.550781 52.910156 29.53125 C 53.058594 29.535156 53.066406 29.40625 53.234375 29.4375 C 53.265625 29.5 53.335938 29.523438 53.421875 29.53125 C 53.414062 29.644531 53.496094 29.671875 53.515625 29.761719 C 53.679688 29.78125 53.765625 29.878906 53.839844 29.992188 L 53.976562 29.992188 C 53.976562 29.964844 54.015625 29.9375 54.023438 29.992188 C 54.011719 30.085938 53.816406 30.003906 53.839844 30.132812 C 53.957031 30.257812 54.027344 30.4375 54.300781 30.410156 C 54.398438 30.34375 54.457031 30.292969 54.484375 30.269531 C 54.488281 30.269531 54.355469 30.054688 54.53125 30.132812 C 54.5 30.210938 54.578125 30.273438 54.578125 30.316406 C 54.578125 30.394531 54.527344 30.527344 54.519531 30.613281 C 54.519531 30.617188 54.519531 30.621094 54.519531 30.625 C 54.515625 30.652344 54.519531 30.675781 54.53125 30.6875 C 54.582031 30.738281 54.554688 30.734375 54.578125 30.824219 C 54.613281 30.964844 54.648438 31.039062 54.671875 31.054688 C 54.683594 31.066406 54.664062 31.132812 54.671875 31.148438 C 54.675781 31.15625 54.710938 31.144531 54.71875 31.148438 C 54.730469 31.160156 54.707031 31.226562 54.71875 31.242188 C 54.71875 31.246094 54.757812 31.238281 54.761719 31.242188 C 54.777344 31.253906 54.757812 31.316406 54.761719 31.335938 C 54.765625 31.335938 54.773438 31.335938 54.78125 31.335938 C 54.75 31.085938 54.710938 30.835938 54.667969 30.585938 " fill-opacity="1" fill-rule="nonzero"/><g transform="matrix(1, 0, 0, 1, 3, 63)"><g clip-path="url(#375e7749b8)"><g fill="#41b93c" fill-opacity="1"><g transform="translate(1.249984, 9.034925)"><g><path d="M 4.671875 -4.375 C 4.671875 -4.007812 4.539062 -3.707031 4.28125 -3.46875 C 4.019531 -3.226562 3.664062 -3.078125 3.21875 -3.015625 L 3.21875 -2.984375 C 3.738281 -2.929688 4.140625 -2.785156 4.421875 -2.546875 C 4.703125 -2.316406 4.84375 -2.007812 4.84375 -1.625 C 4.84375 -1.101562 4.628906 -0.6875 4.203125 -0.375 C 3.773438 -0.0703125 3.1875 0.078125 2.4375 0.078125 C 1.59375 0.078125 0.921875 -0.0234375 0.421875 -0.234375 L 0.421875 -1.25 C 0.660156 -1.132812 0.941406 -1.039062 1.265625 -0.96875 C 1.597656 -0.90625 1.910156 -0.875 2.203125 -0.875 C 3.160156 -0.875 3.640625 -1.15625 3.640625 -1.71875 C 3.640625 -1.96875 3.484375 -2.160156 3.171875 -2.296875 C 2.867188 -2.429688 2.414062 -2.5 1.8125 -2.5 L 1.28125 -2.5 L 1.28125 -3.4375 L 1.75 -3.4375 C 2.351562 -3.4375 2.789062 -3.492188 3.0625 -3.609375 C 3.34375 -3.722656 3.484375 -3.914062 3.484375 -4.1875 C 3.484375 -4.382812 3.394531 -4.539062 3.21875 -4.65625 C 3.050781 -4.769531 2.796875 -4.828125 2.453125 -4.828125 C 1.910156 -4.828125 1.390625 -4.671875 0.890625 -4.359375 L 0.375 -5.171875 C 0.695312 -5.390625 1.039062 -5.546875 1.40625 -5.640625 C 1.769531 -5.742188 2.175781 -5.796875 2.625 -5.796875 C 3.238281 -5.796875 3.734375 -5.664062 4.109375 -5.40625 C 4.484375 -5.144531 4.671875 -4.800781 4.671875 -4.375 Z M 4.671875 -4.375 "/></g></g><g transform="translate(6.433557, 9.034925)"><g><path d="M 2.4375 -3.609375 C 2.1875 -3.609375 1.988281 -3.523438 1.84375 -3.359375 C 1.695312 -3.203125 1.613281 -2.976562 1.59375 -2.6875 L 3.265625 -2.6875 C 3.265625 -2.976562 3.1875 -3.203125 3.03125 -3.359375 C 2.882812 -3.523438 2.6875 -3.609375 2.4375 -3.609375 Z M 2.609375 0.078125 C 1.898438 0.078125 1.347656 -0.113281 0.953125 -0.5 C 0.554688 -0.894531 0.359375 -1.445312 0.359375 -2.15625 C 0.359375 -2.882812 0.539062 -3.445312 0.90625 -3.84375 C 1.269531 -4.25 1.773438 -4.453125 2.421875 -4.453125 C 3.046875 -4.453125 3.53125 -4.273438 3.875 -3.921875 C 4.21875 -3.566406 4.390625 -3.082031 4.390625 -2.46875 L 4.390625 -1.890625 L 1.5625 -1.890625 C 1.582031 -1.546875 1.6875 -1.28125 1.875 -1.09375 C 2.0625 -0.90625 2.320312 -0.8125 2.65625 -0.8125 C 2.914062 -0.8125 3.160156 -0.835938 3.390625 -0.890625 C 3.628906 -0.941406 3.878906 -1.03125 4.140625 -1.15625 L 4.140625 -0.234375 C 3.929688 -0.128906 3.707031 -0.0507812 3.46875 0 C 3.226562 0.0507812 2.941406 0.078125 2.609375 0.078125 Z M 2.609375 0.078125 "/></g></g><g transform="translate(11.1601, 9.034925)"><g><path d="M 4.53125 0 L 3.34375 0 L 3.34375 -3.46875 L 2.25 -3.46875 C 2.164062 -2.5 2.0625 -1.769531 1.9375 -1.28125 C 1.820312 -0.800781 1.664062 -0.453125 1.46875 -0.234375 C 1.269531 -0.0234375 1.007812 0.078125 0.6875 0.078125 C 0.40625 0.078125 0.175781 0.0351562 0 -0.046875 L 0 -1 C 0.125 -0.945312 0.253906 -0.921875 0.390625 -0.921875 C 0.535156 -0.921875 0.65625 -1.023438 0.75 -1.234375 C 0.851562 -1.453125 0.941406 -1.8125 1.015625 -2.3125 C 1.097656 -2.8125 1.171875 -3.5 1.234375 -4.375 L 4.53125 -4.375 Z M 4.53125 0 "/></g></g><g transform="translate(16.320235, 9.034925)"><g><path d="M 2.4375 -3.609375 C 2.1875 -3.609375 1.988281 -3.523438 1.84375 -3.359375 C 1.695312 -3.203125 1.613281 -2.976562 1.59375 -2.6875 L 3.265625 -2.6875 C 3.265625 -2.976562 3.1875 -3.203125 3.03125 -3.359375 C 2.882812 -3.523438 2.6875 -3.609375 2.4375 -3.609375 Z M 2.609375 0.078125 C 1.898438 0.078125 1.347656 -0.113281 0.953125 -0.5 C 0.554688 -0.894531 0.359375 -1.445312 0.359375 -2.15625 C 0.359375 -2.882812 0.539062 -3.445312 0.90625 -3.84375 C 1.269531 -4.25 1.773438 -4.453125 2.421875 -4.453125 C 3.046875 -4.453125 3.53125 -4.273438 3.875 -3.921875 C 4.21875 -3.566406 4.390625 -3.082031 4.390625 -2.46875 L 4.390625 -1.890625 L 1.5625 -1.890625 C 1.582031 -1.546875 1.6875 -1.28125 1.875 -1.09375 C 2.0625 -0.90625 2.320312 -0.8125 2.65625 -0.8125 C 2.914062 -0.8125 3.160156 -0.835938 3.390625 -0.890625 C 3.628906 -0.941406 3.878906 -1.03125 4.140625 -1.15625 L 4.140625 -0.234375 C 3.929688 -0.128906 3.707031 -0.0507812 3.46875 0 C 3.226562 0.0507812 2.941406 0.078125 2.609375 0.078125 Z M 2.609375 0.078125 "/></g></g><g transform="translate(21.046779, 9.034925)"><g><path d="M 1.8125 -4.375 L 1.8125 -2.6875 L 3.484375 -2.6875 L 3.484375 -4.375 L 4.671875 -4.375 L 4.671875 0 L 3.484375 0 L 3.484375 -1.796875 L 1.8125 -1.796875 L 1.8125 0 L 0.625 0 L 0.625 -4.375 Z M 1.8125 -4.375 "/></g></g><g transform="translate(26.343632, 9.034925)"><g><path d="M 3.40625 0 L 3.171875 -0.59375 L 3.140625 -0.59375 C 2.941406 -0.34375 2.734375 -0.164062 2.515625 -0.0625 C 2.304688 0.03125 2.03125 0.078125 1.6875 0.078125 C 1.269531 0.078125 0.941406 -0.0390625 0.703125 -0.28125 C 0.460938 -0.519531 0.34375 -0.863281 0.34375 -1.3125 C 0.34375 -1.769531 0.503906 -2.109375 0.828125 -2.328125 C 1.148438 -2.546875 1.640625 -2.671875 2.296875 -2.703125 L 3.046875 -2.71875 L 3.046875 -2.90625 C 3.046875 -3.351562 2.820312 -3.578125 2.375 -3.578125 C 2.019531 -3.578125 1.609375 -3.472656 1.140625 -3.265625 L 0.75 -4.0625 C 1.25 -4.320312 1.804688 -4.453125 2.421875 -4.453125 C 3.003906 -4.453125 3.453125 -4.320312 3.765625 -4.0625 C 4.078125 -3.8125 4.234375 -3.425781 4.234375 -2.90625 L 4.234375 0 Z M 3.046875 -2.03125 L 2.59375 -2.015625 C 2.238281 -2.003906 1.976562 -1.941406 1.8125 -1.828125 C 1.644531 -1.710938 1.5625 -1.535156 1.5625 -1.296875 C 1.5625 -0.960938 1.753906 -0.796875 2.140625 -0.796875 C 2.410156 -0.796875 2.628906 -0.875 2.796875 -1.03125 C 2.960938 -1.1875 3.046875 -1.398438 3.046875 -1.671875 Z M 3.046875 -2.03125 "/></g></g><g transform="translate(31.175644, 9.034925)"><g/></g><g transform="translate(33.25376, 9.034925)"><g><path d="M 4.59375 -4.375 L 4.59375 0 L 3.40625 0 L 3.40625 -3.46875 L 1.8125 -3.46875 L 1.8125 0 L 0.625 0 L 0.625 -4.375 Z M 4.59375 -4.375 "/></g></g><g transform="translate(38.468583, 9.034925)"><g><path d="M 4.53125 0 L 3.34375 0 L 3.34375 -3.46875 L 2.25 -3.46875 C 2.164062 -2.5 2.0625 -1.769531 1.9375 -1.28125 C 1.820312 -0.800781 1.664062 -0.453125 1.46875 -0.234375 C 1.269531 -0.0234375 1.007812 0.078125 0.6875 0.078125 C 0.40625 0.078125 0.175781 0.0351562 0 -0.046875 L 0 -1 C 0.125 -0.945312 0.253906 -0.921875 0.390625 -0.921875 C 0.535156 -0.921875 0.65625 -1.023438 0.75 -1.234375 C 0.851562 -1.453125 0.941406 -1.8125 1.015625 -2.3125 C 1.097656 -2.8125 1.171875 -3.5 1.234375 -4.375 L 4.53125 -4.375 Z M 4.53125 0 "/></g></g><g transform="translate(43.628718, 9.034925)"><g><path d="M 3.40625 0 L 3.171875 -0.59375 L 3.140625 -0.59375 C 2.941406 -0.34375 2.734375 -0.164062 2.515625 -0.0625 C 2.304688 0.03125 2.03125 0.078125 1.6875 0.078125 C 1.269531 0.078125 0.941406 -0.0390625 0.703125 -0.28125 C 0.460938 -0.519531 0.34375 -0.863281 0.34375 -1.3125 C 0.34375 -1.769531 0.503906 -2.109375 0.828125 -2.328125 C 1.148438 -2.546875 1.640625 -2.671875 2.296875 -2.703125 L 3.046875 -2.71875 L 3.046875 -2.90625 C 3.046875 -3.351562 2.820312 -3.578125 2.375 -3.578125 C 2.019531 -3.578125 1.609375 -3.472656 1.140625 -3.265625 L 0.75 -4.0625 C 1.25 -4.320312 1.804688 -4.453125 2.421875 -4.453125 C 3.003906 -4.453125 3.453125 -4.320312 3.765625 -4.0625 C 4.078125 -3.8125 4.234375 -3.425781 4.234375 -2.90625 L 4.234375 0 Z M 3.046875 -2.03125 L 2.59375 -2.015625 C 2.238281 -2.003906 1.976562 -1.941406 1.8125 -1.828125 C 1.644531 -1.710938 1.5625 -1.535156 1.5625 -1.296875 C 1.5625 -0.960938 1.753906 -0.796875 2.140625 -0.796875 C 2.410156 -0.796875 2.628906 -0.875 2.796875 -1.03125 C 2.960938 -1.1875 3.046875 -1.398438 3.046875 -1.671875 Z M 3.046875 -2.03125 "/></g></g><g transform="translate(48.46073, 9.034925)"><g><path d="M 1.8125 -4.375 L 1.8125 -2.6875 L 3.484375 -2.6875 L 3.484375 -4.375 L 4.671875 -4.375 L 4.671875 0 L 3.484375 0 L 3.484375 -1.796875 L 1.8125 -1.796875 L 1.8125 0 L 0.625 0 L 0.625 -4.375 Z M 1.8125 -4.375 "/></g></g><g transform="translate(53.757583, 9.034925)"><g><path d="M 2.4375 -3.609375 C 2.1875 -3.609375 1.988281 -3.523438 1.84375 -3.359375 C 1.695312 -3.203125 1.613281 -2.976562 1.59375 -2.6875 L 3.265625 -2.6875 C 3.265625 -2.976562 3.1875 -3.203125 3.03125 -3.359375 C 2.882812 -3.523438 2.6875 -3.609375 2.4375 -3.609375 Z M 2.609375 0.078125 C 1.898438 0.078125 1.347656 -0.113281 0.953125 -0.5 C 0.554688 -0.894531 0.359375 -1.445312 0.359375 -2.15625 C 0.359375 -2.882812 0.539062 -3.445312 0.90625 -3.84375 C 1.269531 -4.25 1.773438 -4.453125 2.421875 -4.453125 C 3.046875 -4.453125 3.53125 -4.273438 3.875 -3.921875 C 4.21875 -3.566406 4.390625 -3.082031 4.390625 -2.46875 L 4.390625 -1.890625 L 1.5625 -1.890625 C 1.582031 -1.546875 1.6875 -1.28125 1.875 -1.09375 C 2.0625 -0.90625 2.320312 -0.8125 2.65625 -0.8125 C 2.914062 -0.8125 3.160156 -0.835938 3.390625 -0.890625 C 3.628906 -0.941406 3.878906 -1.03125 4.140625 -1.15625 L 4.140625 -0.234375 C 3.929688 -0.128906 3.707031 -0.0507812 3.46875 0 C 3.226562 0.0507812 2.941406 0.078125 2.609375 0.078125 Z M 2.609375 0.078125 "/></g></g><g transform="translate(58.484126, 9.034925)"><g><path d="M 4.234375 -4.375 L 4.234375 -3.46875 L 2.8125 -3.46875 L 2.8125 0 L 1.625 0 L 1.625 -3.46875 L 0.1875 -3.46875 L 0.1875 -4.375 Z M 4.234375 -4.375 "/></g></g><g transform="translate(62.90989, 9.034925)"><g><path d="M 3.40625 0 L 3.171875 -0.59375 L 3.140625 -0.59375 C 2.941406 -0.34375 2.734375 -0.164062 2.515625 -0.0625 C 2.304688 0.03125 2.03125 0.078125 1.6875 0.078125 C 1.269531 0.078125 0.941406 -0.0390625 0.703125 -0.28125 C 0.460938 -0.519531 0.34375 -0.863281 0.34375 -1.3125 C 0.34375 -1.769531 0.503906 -2.109375 0.828125 -2.328125 C 1.148438 -2.546875 1.640625 -2.671875 2.296875 -2.703125 L 3.046875 -2.71875 L 3.046875 -2.90625 C 3.046875 -3.351562 2.820312 -3.578125 2.375 -3.578125 C 2.019531 -3.578125 1.609375 -3.472656 1.140625 -3.265625 L 0.75 -4.0625 C 1.25 -4.320312 1.804688 -4.453125 2.421875 -4.453125 C 3.003906 -4.453125 3.453125 -4.320312 3.765625 -4.0625 C 4.078125 -3.8125 4.234375 -3.425781 4.234375 -2.90625 L 4.234375 0 Z M 3.046875 -2.03125 L 2.59375 -2.015625 C 2.238281 -2.003906 1.976562 -1.941406 1.8125 -1.828125 C 1.644531 -1.710938 1.5625 -1.535156 1.5625 -1.296875 C 1.5625 -0.960938 1.753906 -0.796875 2.140625 -0.796875 C 2.410156 -0.796875 2.628906 -0.875 2.796875 -1.03125 C 2.960938 -1.1875 3.046875 -1.398438 3.046875 -1.671875 Z M 3.046875 -2.03125 "/></g></g></g></g></g></svg>